<svg xmlns="http://www.w3.org/2000/svg" xml:space="preserve" width="1500" height="1500" stroke="#000" data-id="lg_FdpF6MIlMQj7gdqyN9" data-version="1" viewBox="0 0 1500 1500"><path fill="#fff" stroke="transparent" d="M0 0h1500v1500H0z"/><g data-padding="20"><g transform="translate(-576.165 -578.574)scale(1.72788)"><rect width="498.771" height="458.78" x="148.949" y="170.684" fill="none" rx="0" ry="0" transform="matrix(.92 0 0 .92 439.47 402.84)"/><path fill="#343434" d="m789.415 868.428 13.819-60.508h10.837v81.43H604.9v-10.084q10.45-3.367 20.35-5.418 9.899-2.052 19.614-3.174l3.735-206.927-43.7-8.225v-10.828h205.436v73.582h-10.837l-13.074-52.661H665.03l13.074-13.073v100.473h69.846l11.583-32.127h9.715v85.165h-9.715l-11.583-32.495h-69.846v107.944l-13.074-13.073Z"/><path fill="#343434" d="M925.015 892.34q-57.528 0-88.522-32.127-31.004-32.117-31.004-92.257 0-39.965 15.124-68.356 15.125-28.382 43.14-43.7t67.233-15.318q14.195 0 30.636 2.244 16.43 2.245 33.617 6.348l-6.726 25.402q-15.686-4.858-31.38-7.47-15.687-2.614-31.373-2.614-18.3 0-36.23 3.92t-35.116 11.766l12.328-8.96q-14.563 21.288-21.85 45.567t-7.286 52.293q0 48.558 23.727 74.52 23.717 25.953 67.04 25.953 12.705 0 27.453-2.613 14.757-2.612 31.188-8.215l8.225 23.9q-39.22 9.717-70.224 9.717m70.224-9.716-32.872.378 21.289-73.582h11.583Zm0-160.236h-11.583l-20.921-73.214h32.504Z"/><g stroke-width="3" paint-order="stroke"><path d="M1019.385 954.926q1.644-.48 3.264-.84c1.848-.372 3.684-.744 5.604-.36 1.512.3 2.856.924 4.176 1.692q1.236.708 2.388 1.56c.48.372.78.876 1.116 1.344.444.612.168 1.2-.276 1.656a5.04 5.04 0 0 1-4.308 1.572c-2.376-.24-4.764-.36-7.116-.84-1.056-.216-1.908-.864-2.832-1.356a13.2 13.2 0 0 0-3.024-1.068c-.408-.108-.768-.084-1.08.252-.204.216-.492.312-.756.444a2.4 2.4 0 0 0-1.236 2.976q.252.696.276 1.428l.324 8.076.216 5.856c.048 2.364.036 4.74.096 7.104.06 2.496.12 4.992.3 7.488q.216 2.808.228 5.64c0 1.98.132 3.96.192 5.94q.084 2.832.132 5.64c0 .444.024.924-.516 1.092-.48.156-.864-.048-1.152-.42q-.204-.276-.564-.276c-1.164-.108-1.704-.708-1.488-1.896.612-3.36.264-6.744.312-10.116.048-3.312-.216-6.636-.192-9.948q.024-2.724 0-5.424l-.084-7.632c-.024-2.112.024-4.212-.024-6.324-.048-2.124-.168-4.248-.252-6.372-.024-.528-.144-.972-.612-1.332-.528-.42-.828-1.068-1.332-1.536-.996-.936-2.28-1.224-3.504-1.608a27.6 27.6 0 0 1-7.584-3.624c-1.416-.984-2.916-1.884-4.092-3.192-.432-.48-.792-1.008-.54-1.632.276-.696.936-.972 1.644-1.068.66-.084 1.32.012 1.968.18 2.52.648 4.932 1.56 7.116 2.976a14.4 14.4 0 0 1 4.38 4.164c.432.66.9 1.344 1.644 1.74.144.084.288.24.468.156.228-.108.144-.348.132-.528l-.3-5.064c-.24-4.788-.924-9.552-1.248-14.328-.084-1.344-.312-2.676-.396-4.02a5.3 5.3 0 0 0-.888-2.388 73 73 0 0 0-3.324-4.836c-1.644-2.196-3.336-4.356-4.848-6.636s-3.288-4.368-5.064-6.468a32.4 32.4 0 0 1-2.748-3.804c-.768-1.212-1.716-2.316-2.628-3.432-1.128-1.392-2.004-2.952-3.096-4.38-1.116-1.452-2.268-2.88-3.324-4.368s-2.316-2.832-3.288-4.392c-.672-1.08-1.548-2.052-2.352-3.048a20.4 20.4 0 0 1-2.556-4.104c-.888-1.92-2.232-3.552-3.348-5.328-1.452-2.328-3.6-4.008-5.34-6.048-1.776-2.076-4.104-3.348-6.372-4.752-1.248-.768-2.436-1.632-3.696-2.388-.768-.468-1.62-.792-2.4-1.236-1.164-.66-2.1-1.668-3.42-2.112-2.472-.828-4.86-1.884-7.548-1.968-2.484-.084-4.764-1.032-7.044-1.956-1.368-.552-2.796-.864-4.224-1.188-1.98-.456-3.876-1.152-5.82-1.74a68 68 0 0 0-7.128-1.74 33.6 33.6 0 0 1-6.072-1.944 116 116 0 0 1-6.552-2.772c-1.86-.876-3.612-1.956-5.448-2.844a26.4 26.4 0 0 0-5.76-2.124q-.828-.204-1.596-.54c-.576-.228-.768-.768-.804-1.308s.384-.78.84-.984c.96-.444 1.98-.288 2.964-.3q5.52-.06 11.052.348 3.48.264 6.948.468c2.544.144 5.064.444 7.596.6 3.756.24 7.512.336 11.244.852 2.376.336 4.656 1.068 6.96 1.776 1.44.444 2.796 1.032 4.188 1.548 2.328.864 4.392 2.244 6.504 3.492 1.92 1.14 3.564 2.616 5.304 4.008-.588-1.032-1.368-1.908-2.136-2.808-1.752-2.076-3.924-3.72-5.748-5.712-.516-.564-1.248-.924-1.872-1.392-1.212-.912-2.28-1.992-3.492-2.904-.6-.456-1.26-.768-1.896-1.092-1.692-.864-3.144-2.04-4.62-3.216-1.2-.96-2.544-1.728-3.912-2.436a15.6 15.6 0 0 1-5.388-4.416 32.4 32.4 0 0 0-5.496-5.172 25 25 0 0 1-2.808-2.796c-1.908-2.136-4.032-4.044-6.144-5.976-1.968-1.788-3.828-3.696-5.76-5.532a65 65 0 0 0-4.788-4.104c-3.132-2.436-6.348-4.788-9.024-7.74-1.704-1.872-3.336-3.804-5.064-5.652-.528-.564-1.044-1.164-1.608-1.692-.276-.264-.516-.624-.324-.96a1.02 1.02 0 0 1 1.128-.528q3.048.648 5.988 1.704 2.004.696 4.02 1.332c4.044 1.308 8.112 2.52 11.928 4.416 2.4 1.2 4.764 2.508 6.9 4.128 2.664 2.004 5.424 3.912 7.824 6.264a59 59 0 0 1 5.676 6.312 100 100 0 0 0 5.736 6.948c1.104 1.212 2.04 2.556 3.06 3.84 2.052 2.604 3.984 5.304 6.432 7.584a28.8 28.8 0 0 1 5.04 5.988 132 132 0 0 1 4.068 7.2c1.116 2.136 1.848 4.476 3.288 6.456.192.264.336.588.744.744-.036-.6-.42-.996-.552-1.476-.612-2.34-1.584-4.56-2.388-6.84-.564-1.608-.864-3.3-1.512-4.884-.864-2.1-1.464-4.296-2.28-6.396-1.2-3.096-1.836-6.336-2.676-9.516-.48-1.8-1.092-3.552-1.38-5.4a30 30 0 0 1-.456-5.736c.036-1.176.024-2.34.18-3.504q.12-.888.54-1.656c.396-.696 1.008-.768 1.512-.144.576.696.9 1.536 1.176 2.352 1.44 4.248 3.264 8.364 4.632 12.636q1.44 4.44 3.216 8.736a60 60 0 0 1 3.192 10.272q.756 3.276 1.692 6.516c.936 3.24 1.632 6.552 2.268 9.864q.48 2.436.816 4.884.156 1.32.132 2.64c0 .588.132 1.092.42 1.608.996 1.812 1.92 3.672 2.976 5.46.54.912 1.296 1.716 1.992 2.532.372.432.624.936.888 1.428.96 1.86 2.412 3.372 3.552 5.1 1.02 1.536 1.896 3.18 3.108 4.584.816.948 1.644 1.884 2.268 2.976.948 1.68 1.788 3.42 2.94 4.98q1.116 1.5 2.304 2.94a29 29 0 0 1 2.604 3.9c1.056 1.8 2.376 3.408 3.636 5.052.516.672 1.068 1.344 1.512 2.076 1.212 2.004 2.832 3.672 4.284 5.496a119 119 0 0 1 4.596 6.288c1.428 2.052 2.964 4.008 4.5 5.988l.996 1.296c.168-.552 0-1.008-.048-1.428-.348-2.94-.78-5.88-1.092-8.82-.264-2.508-.612-5.004-.876-7.512a194 194 0 0 0-.816-6.408c-.072-.552-.384-.96-.696-1.416-1.164-1.74-2.712-3.156-4.008-4.764-.624-.768-1.464-1.284-2.232-1.872q-.864-.636-1.608-1.392a45.6 45.6 0 0 1-4.476-5.208 61 61 0 0 1-4.368-7.212c-1.176-2.28-2.244-4.62-3.384-6.924-.768-1.56-1.608-3.072-2.34-4.656-.54-1.152-.96-2.352-1.404-3.54a32.4 32.4 0 0 1-1.488-5.496c-.132-.696-.288-1.38.108-2.076q.48-.888 1.392-.648c1.68.444 3.36.912 4.98 1.536q2.172.804 4.092 2.1c1.44.984 2.652 2.232 3.816 3.504a32.4 32.4 0 0 1 5.112 7.74c.576 1.176 1.128 2.364 1.788 3.528l-.864-4.812-1.524-8.388c-.516-2.832-.96-5.688-1.596-8.496a829 829 0 0 1-2.1-9.456c-.78-3.564-1.512-7.128-2.328-10.68-.552-2.424-1.272-4.824-1.776-7.26-.3-1.464-.792-2.868-1.092-4.32-.324-1.536-1.632-2.388-2.628-3.444a30 30 0 0 1-2.928-3.468 14.4 14.4 0 0 0-4.8-4.008c-2.448-1.404-4.872-2.832-6.84-4.884q-.756-.756-1.332-1.644a4.8 4.8 0 0 0-2.028-1.896c-1.464-.72-2.892-1.488-4.38-2.16-2.508-1.116-5.124-1.884-7.74-2.676-1.728-.516-3.36-1.284-5.004-2.04-2.112-.972-4.308-1.752-6.456-2.628a33.6 33.6 0 0 1-8.076-4.56 6.6 6.6 0 0 1-2.028-2.568c-.312-.696.396-1.632 1.332-1.716 1.224-.12 2.448.012 3.66.192 3.516.528 6.792 1.836 10.14 2.94 1.764.576 3.528 1.176 5.196 2.016 1.044.516 2.052 1.116 3.072 1.68q1.992 1.092 3.936 2.256l1.512.948-.972-1.872a39.6 39.6 0 0 0-4.86-7.392 90 90 0 0 1-4.248-5.532 114 114 0 0 0-5.352-6.864l-1.74-2.16c-.516-.624-1.104-1.224-1.632-1.86a74.4 74.4 0 0 0-7.32-7.728 65 65 0 0 1-6.348-6.396c-1.644-1.932-3.228-3.924-5.1-5.664-1.224-1.14-2.592-2.088-3.852-3.168-.984-.84-2.028-1.62-3.012-2.472-1.08-.936-2.352-1.62-3.588-2.352-1.08-.636-2.328-.732-3.36-1.416-.288-.192-.54-.432-.828-.6-.444-.252-.78-.576-.624-1.116.18-.6.684-.84 1.26-.816q1.284.072 2.52.48a21.6 21.6 0 0 1 5.808 3.048c1.86 1.32 4.056 2.028 6.036 3.132 2.148 1.212 4.5 2.04 6.612 3.312a74 74 0 0 1 7.104 4.764 72 72 0 0 1 7.14 6.528c1.176 1.188 2.196 2.532 3.252 3.84a80 80 0 0 0 4.008 4.584 52 52 0 0 1 3.624 4.488l1.884 2.616c1.164 1.548 2.484 2.964 3.408 4.68a43 43 0 0 1 1.944 4.272q.528 1.368 1.188 2.676c.744 1.392 1.116 2.916 1.656 4.392.516 1.392 1.236 2.724 1.692 4.128.684 2.112 1.2 4.284 1.788 6.42.06.24.084.48.288.732.432-.744.288-1.536.288-2.28.036-3.384-.048-6.756-.444-10.128a61 61 0 0 0-1.284-7.8 20.4 20.4 0 0 0-2.436-5.556 173 173 0 0 1-3.684-6.3c-.912-1.668-1.824-3.42-3.12-4.836-1.668-1.812-2.556-4.008-3.504-6.192a2.4 2.4 0 0 1-.12-1.308c.072-.576.78-.864 1.392-.576a15 15 0 0 1 5.712 4.68 77 77 0 0 1 4.416 6.624c.756 1.284 1.536 2.556 2.136 3.924.48 1.092.9 2.208 1.44 3.288.816 1.644 1.464 3.36 1.812 5.172.36 1.92.96 3.804.936 5.772a102 102 0 0 1-.54 10.968c-.156 1.584-.36 3.156-.756 4.704-.228.9-.48 1.812-.552 2.724-.096 1.2.456 2.124 1.488 2.832 1.848 1.26 3.828 2.268 5.724 3.456 1.428.9 2.688 1.992 3.672 3.42.936 1.368 2.028 2.64 3.06 3.936.048.072.156.096.288.18.132-.852-.36-1.5-.528-2.22-.672-2.904-1.476-5.784-2.124-8.7-.816-3.672-1.428-7.392-2.292-11.052q-.984-4.32-2.244-8.568c-1.152-3.84-2.16-7.728-3.252-11.592-.78-2.772-1.752-5.508-2.376-8.316-.516-2.304-1.26-4.548-1.764-6.852a45.6 45.6 0 0 0-2.496-7.74 86 86 0 0 1-2.904-8.364 52 52 0 0 0-2.472-6.444 170 170 0 0 0-4.188-8.364c-1.668-3.204-3.492-6.336-4.776-9.744a19.2 19.2 0 0 0-4.332-6.396 13.2 13.2 0 0 1-3.048-5.436q-.816-3-1.572-6.024c-.804-3.228-1.56-6.456-2.388-9.672-.66-2.568-1.584-5.076-2.004-7.716a60 60 0 0 1-.84-7.332c-.096-2.76-.288-5.52-.132-8.292.132-2.304.048-4.632.468-6.924.072-.372.12-.852.48-.9.348-.048.384.468.468.744.432 1.548.96 3.072 1.356 4.62.288 1.104.792 2.148 1.164 3.228a59 59 0 0 1 2.148 7.212q.936 4.524 2.196 8.976c.432 1.5 1.176 2.904 1.728 4.368a50.4 50.4 0 0 1 2.244 7.584c.372 1.86.984 3.684 1.02 5.604.024 1.092-.18 2.22-.072 3.276.192 1.884-.048 3.78.336 5.628.132.66.12 1.32.132 1.98.024 1.86 1.152 3.288 1.764 4.92.852 2.292 2.352 4.212 3.528 6.312l1.716 3.156c.264-.192.192-.432.192-.636-.036-2.376.348-4.716.708-7.056.42-2.796.72-5.568-.084-8.352-.384-1.344-.948-2.616-1.332-3.96a19.2 19.2 0 0 1-.756-4.62 74 74 0 0 0-1.02-9.192c-.264-1.572-.3-3.156-.36-4.752q-.108-3.36.564-6.636c.468-2.256.9-4.512 1.74-6.66a14.4 14.4 0 0 1 2.328-3.792 54 54 0 0 1 4.296-4.788c.168-.168.3-.432.6-.324s.372.372.396.648c.288 2.976.84 5.904 1.404 8.832.288 1.488.792 2.916 1.032 4.416.48 2.916.972 5.832 1.188 8.784.12 1.656.384 3.3.42 4.968.048 2.052-.432 4.008-1.008 5.976-.72 2.448-1.944 4.692-2.652 7.14-.732 2.484-1.896 4.812-2.964 7.164q-.264.6-.456 1.236c-.204.648-.6 1.056-1.296 1.128-.288.024-.324.216-.36.456-.384 2.64-.96 5.244-1.392 7.872-.252 1.572-.516 3.216-.036 4.8.324 1.068.816 2.076 1.224 3.12q1.812 4.68 3.696 9.348c.816 2.016 1.524 4.068 2.34 6.084.384.948.84 1.884 1.176 2.844.984 2.784 1.968 5.568 2.688 8.448q.936 3.612 2.076 7.188c.948 3.06 2.064 6.072 2.748 9.216.108.492.336.96.552 1.56.456-1.26.516-2.496.78-3.672.612-2.772 1.272-5.532 1.452-8.388a11.64 11.64 0 0 0-1.656-7.152c-1.14-1.848-2.508-3.564-3.3-5.616a45.6 45.6 0 0 1-2.112-7.452c-.18-.972-.204-1.944-.3-2.904-.132-1.296-.3-2.616-.204-3.924.192-2.628.288-5.268 1.212-7.788a24 24 0 0 1 2.856-5.16c.852-1.26 1.596-2.592 2.484-3.804 1.02-1.404 1.704-2.988 2.604-4.596.204.696-.18 1.128-.396 1.5-1.116 1.824-2.004 3.78-3.252 5.532-1.092 1.536-1.956 3.216-2.916 4.824-.864 1.428-1.032 3.06-1.332 4.632a30 30 0 0 0-.144 9.72c.384 2.772.876 5.556 2.064 8.148a31 31 0 0 0 2.676 4.62l2.184 3.216q.096.156.144.336c.072.228.048.6.312.588.324-.012.42-.384.468-.672.648-3.612 1.512-7.188 1.86-10.848.204-2.16.144-4.356.192-6.528.024-1.068.084-2.148.012-3.216q-.168-2.556-.192-5.112c0-1.02.084-2.052.06-3.072q-.072-4.032-.192-8.052c-.06-1.872-.12-3.756.048-5.628.06-.624-.144-1.26 0-1.896.024-.108 0-.252-.132-.312-.288-.12-.3.252-.516.288l.768-3.036c.06-.216.024-.576.384-.516.312.048.264.372.252.612-.036 1.656-.144 3.312-.12 4.968q.024 3.444.228 6.888c.156 2.484.204 4.968.3 7.452.096 2.424.024 4.848.276 7.26q.504 4.764.168 9.516a50.4 50.4 0 0 1-1.152 8.412c-.18.708-.192 1.452-.3 2.256.54-.492.78-1.104 1.128-1.632.72-1.104 1.5-2.172 2.172-3.312a34.8 34.8 0 0 0 4.176-11.064c.792-3.948 1.008-7.908.852-11.916-.072-1.704-.024-3.42-.108-5.124a84 84 0 0 1-.048-6.012c.036-1.584-.156-3.168.264-4.728.132-.468.336-.792.828-.924.468-.132.744.12 1.092.408 1.032.864 1.356 2.076 1.728 3.252.66 2.148 1.344 4.296 1.764 6.504.372 1.944.612 3.912.828 5.88.192 1.764.372 3.54.864 5.268.48 1.692.528 3.444.312 5.172-.144 1.14-.12 2.316-.48 3.42a14.4 14.4 0 0 1-3.024 5.604q-1.368 1.476-2.7 2.976c-1.992 2.244-4.38 4.032-6.744 5.856q-1.728 1.308-2.964 3.096c-.3.444-.6.912-1.164 1.08-.348.096-.348.372-.336.648.144 2.952-.576 5.772-1.32 8.58-.624 2.34-1.308 4.656-1.92 7.008-.192.732.144 1.44.336 2.148q.384 1.524.792 3.036l.732 2.46q.888 3.108 1.704 6.216c.612 2.436 1.128 4.908 1.752 7.344.672 2.64 1.524 5.244 2.112 7.908.504 2.316 1.26 4.572 1.716 6.888.468 2.4 1.224 4.728 1.764 7.116.564 2.448 1.248 4.86 1.8 7.32.528 2.4 1.128 4.788 1.68 7.188.684 2.952 1.104 5.964 1.848 8.892.132.528.336.54.672.324.996-.636 1.956-1.332 2.304-2.556l.132-.264c1.272-1.62.852-3.336.204-5.004-1.2-3.096-2.736-6.048-4.056-9.096a44.4 44.4 0 0 1-2.22-5.976c-.42-1.5-.912-2.988-1.212-4.512-.588-2.952-.984-5.952-.276-8.952a8.4 8.4 0 0 1 2.724-4.524 101 101 0 0 1 5.496-4.368 13.2 13.2 0 0 1 4.968-2.58c.54-.12.792.084.876.588a2.4 2.4 0 0 1 0 1.092 36 36 0 0 1-3.096 8.016q-1.596 2.928-3.24 5.832a14.4 14.4 0 0 0-1.956 7.356c.012 1.44.396 2.832.66 4.248.3 1.656.708 3.3 1.02 4.956.24 1.212.876 2.268 1.248 3.432.396 1.248.84 2.484 1.212 3.756.324-1.308.372-2.64.396-3.96.036-1.692.204-3.372.408-5.04.132-1.116.06-2.244.12-3.36q.108-2.124.42-4.236c.444-3.108 1.548-6.048 2.46-9.036q.924-2.928 1.536-5.964c.744-3.84 1.248-7.728 2.496-11.46a43 43 0 0 1 2.856-6.672 67 67 0 0 1 2.46-4.332q1.2-1.836 2.52-3.588a43 43 0 0 1 4.116-4.872 42 42 0 0 1 6.204-4.92 118 118 0 0 0 9.588-7.128q1.692-1.416 3.192-3.036.444-.54.84-1.104.432-.6 1.008-.156c.348.276.504.66.18 1.02-1.5 1.704-1.836 3.924-2.64 5.928q-1.08 2.76-2.088 5.568c-.588 1.632-1.068 3.3-1.728 4.908-1.224 2.988-2.148 6.072-3.564 8.988-.948 1.956-1.62 4.032-2.412 6.06a238 238 0 0 1-5.736 13.344q-1.884 4.104-3.708 8.232c-.936 2.1-1.74 4.272-2.952 6.24-1.524 2.472-2.712 5.136-4.332 7.548-.684 1.02-1.212 2.124-1.884 3.156-1.344 2.076-2.784 4.092-4.092 6.18a49 49 0 0 1-3.384 4.872c-.876 1.08-1.452 2.376-2.28 3.504a13.2 13.2 0 0 1-3.804 3.696c-.084.048-.168.144-.252.144-1.068.036-.864.636-.708 1.356.504 2.208 1.02 4.428 1.38 6.672.312 1.98.852 3.912 1.2 5.88.432 2.496 1.08 4.968 1.488 7.476.336 2.004.732 3.984 1.092 5.988.48 2.664.84 5.352 1.296 8.028.48 2.796.924 5.592 1.572 8.364.324 1.368.852 2.7.924 4.14q.024.144.168.396c.396-.528.276-1.104.3-1.596.192-4.32 1.068-8.544 2.016-12.744a80.4 80.4 0 0 1 3.684-12.048c.648-1.62 1.62-3.072 2.568-4.536 1.464-2.256 2.916-4.524 4.548-6.648a26.4 26.4 0 0 1 5.976-5.688c1.8-1.224 3.84-1.92 5.748-2.892.516-.264.972-.648 1.452-.996.276-.192.564-.36.876-.144.336.228.552.528.456.996-.3 1.464-.636 2.916-.864 4.392a30 30 0 0 1-.744 3.432c-.612 2.28-1.188 4.584-1.98 6.804q-1.404 3.948-3 7.812a54 54 0 0 1-4.752 9.42q-1.74 2.64-3.588 5.196c-1.656 2.268-3.276 4.584-5.112 6.72-.9 1.068-1.608 2.268-2.544 3.312-.672.756-1.08 1.68-1.476 2.7.684-.12 1.188-.48 1.704-.732a61 61 0 0 1 9.132-3.756c2.376-.744 4.848-1.128 7.332-1.404q2.136-.24 4.284-.552a12 12 0 0 1 6.96 1.296c1.356.672 1.404 2.028.168 2.892-1.092.768-2.136 1.608-3.252 2.34a12 12 0 0 1-5.964 1.812c-2.904.216-5.832.252-8.712.612-1.824.228-3.552-.252-5.328-.276-2.424-.024-4.836-.096-7.092 1.02-.324.156-.396.408-.456.696a22.8 22.8 0 0 0-.408 5.028c.024 1.788-.168 3.576.084 5.352.24 1.716.432 3.444.732 5.148q.48 2.712.576 5.472l.168 4.332q.06.756.468 1.38c.216.336.252.648-.012.948s-.228.636-.192.972q.336 3.48.636 6.948c.252 2.88.708 5.736.864 8.616l.288 5.1c.012.228-.06.54.228.636.252.072.36-.204.528-.336.9-.72 1.152-1.812 1.536-2.796a44 44 0 0 1 2.46-5.4 28.8 28.8 0 0 1 6.696-7.992 38.4 38.4 0 0 1 9.468-5.772c2.196-.96 4.308-2.112 6.444-3.192 1.188-.6 2.088-.144 2.088 1.2s-.372 2.652-.72 3.948c-.876 3.204-3.108 5.34-5.712 7.116-3.3 2.244-6.588 4.5-10.152 6.312q-3.36 1.728-6.6 3.624c-.744.432-1.296 1.116-2.016 1.632Zm23.424-188.796c-.204-.036-.312.072-.408.18-1.44 1.452-3.156 2.58-4.776 3.816-2.7 2.052-5.556 3.912-8.232 6.012a40.8 40.8 0 0 0-7.512 7.98c-1.488 2.004-2.688 4.2-3.9 6.372a39.6 39.6 0 0 0-3.996 10.608c-.804 3.408-1.14 6.9-1.956 10.308-.468 1.944-1.08 3.852-1.716 5.748-.564 1.668-1.14 3.336-1.5 5.052q-.636 3.06-.792 6.18c-.12 2.052-.348 4.104-.528 6.144-.144 1.584-.132 3.18-.384 4.752-.096.612-.108 1.248-.168 2.004a7.2 7.2 0 0 0 1.692-2.052c.684-1.068 1.344-2.16 2.1-3.18a65 65 0 0 0 3.312-4.932c1.464-2.424 3.084-4.752 4.38-7.284.936-1.824 2.088-3.552 2.976-5.4 1.236-2.556 2.292-5.184 3.456-7.776l3.864-8.472c.936-2.076 1.992-4.104 2.736-6.252 1.116-3.24 2.58-6.336 3.828-9.516.924-2.364 1.992-4.656 2.832-7.056q1.02-2.856 2.124-5.676c.768-1.98 1.428-3.996 2.112-6 .18-.516.516-.996.468-1.584Zm-153.912 25.968c.168.228.228.36.324.456q1.716 1.752 3.324 3.6a64.8 64.8 0 0 0 10.608 9.816 68 68 0 0 1 5.496 4.5c1.884 1.704 3.648 3.528 5.532 5.208 2.484 2.208 4.968 4.404 7.26 6.804a31 31 0 0 0 4.26 3.912q1.956 1.416 3.54 3.288a15.6 15.6 0 0 0 5.52 4.524c1.2.552 2.376 1.164 3.42 1.992a33.6 33.6 0 0 0 5.052 3.48c.708.372 1.464.708 2.076 1.212 2.52 2.088 5.292 3.852 7.536 6.252 1.02 1.092 2.388 1.8 3.216 3.096.108.168.264.36.54.288.012-.048.06-.108.048-.132-.864-1.776-1.572-3.624-2.616-5.304-1.176-1.872-2.148-3.876-3.384-5.712a33.6 33.6 0 0 0-4.68-5.508 43 43 0 0 1-4.116-4.56c-1.8-2.28-3.48-4.644-5.4-6.828-1.08-1.224-2.112-2.496-3.216-3.72-1.416-1.572-2.604-3.36-3.984-4.968a45.6 45.6 0 0 0-6.36-6.348c-1.872-1.476-3.708-3-5.712-4.32a61 61 0 0 0-7.644-4.428 44.4 44.4 0 0 0-6.504-2.424c-3.708-1.092-7.32-2.484-11.04-3.528-.96-.264-1.896-.66-3.084-.684Zm78.168 78.336a26.4 26.4 0 0 0-2.532-4.824c-1.236-1.932-2.94-3.516-4.524-5.172q-1.812-1.92-3.66-3.792c-.636-.636-1.224-1.392-1.992-1.824-1.296-.744-2.34-1.824-3.684-2.484-1.068-.528-2.004-1.308-3.084-1.8a54 54 0 0 0-7.02-2.736 38.4 38.4 0 0 0-7.212-1.62c-2.22-.204-4.44-.504-6.684-.504-2.172 0-4.332-.288-6.504-.408-.936-.048-1.848-.336-2.772-.312-1.644.06-3.264-.252-4.908-.288-1.908-.048-3.804-.24-5.7-.396-1.968-.156-3.948-.156-5.928-.228h-.972c.588.42 1.188.672 1.776.96q3.096 1.536 6.156 3.096c1.392.708 2.844 1.308 4.284 1.92 2.616 1.104 5.244 2.148 8.004 2.868 2.508.66 5.112.972 7.548 1.872 2.508.924 5.076 1.584 7.668 2.184 1.356.312 2.676.78 3.972 1.272 1.212.468 2.388.996 3.684 1.152 2.568.312 5.16.54 7.596 1.536 1.368.564 2.868.828 4.068 1.824.636.528 1.32 1.032 2.064 1.392 2.688 1.308 5.1 3.072 7.668 4.572.924.54 1.788 1.152 2.7 1.728Zm68.808-16.632q-1.356.696-2.616 1.296c-2.58 1.2-4.86 2.808-6.768 4.932a66 66 0 0 0-6.66 9.192 34.8 34.8 0 0 0-3.828 8.688c-.984 3.36-1.968 6.72-2.58 10.176-.324 1.824-.924 3.612-1.08 5.46-.18 2.256-.516 4.5-.66 6.756-.024.408-.312.792-.096 1.32.588-.864.984-1.764 1.644-2.496 1.764-1.944 3.228-4.116 4.908-6.12 2.196-2.628 4.092-5.484 6.048-8.28a42 42 0 0 0 3.552-5.82c1.296-2.676 2.376-5.472 3.48-8.232.78-1.968 1.464-3.984 2.184-5.988.312-.876.696-1.74.876-2.64.312-1.584.744-3.132 1.056-4.716.228-1.14.528-2.28.564-3.54Zm-67.824-136.548c.18.036.216-.06.264-.144q1.044-2.124 2.04-4.296c.708-1.572 1.164-3.252 1.8-4.86.84-2.136 1.752-4.248 2.376-6.456.384-1.368.768-2.724.756-4.164q-.036-1.752-.168-3.516c-.156-2.316-.216-4.632-.504-6.936-.288-2.352-.78-4.668-1.212-7.008-.24-1.32-.6-2.628-.816-3.948-.264-1.692-.444-3.384-.648-5.088-.024-.168 0-.372-.216-.42s-.276.156-.384.288c-.708.864-1.38 1.788-2.148 2.592a15.6 15.6 0 0 0-2.964 4.548 26.4 26.4 0 0 0-1.524 5.196 68 68 0 0 0-.792 5.148c-.24 1.896-.048 3.792.108 5.688.132 1.536.3 3.084.636 4.548.48 2.088.648 4.2.804 6.312.12 1.68.192 3.384.708 4.98.804 2.472 1.704 4.92 1.884 7.524Zm3.624 84.108c-.096-.6-.108-1.032-.24-1.404-.924-2.448-1.392-5.04-2.484-7.44-.84-1.86-1.2-3.924-2.112-5.772-.84-1.68-1.536-3.432-2.292-5.16-.78-1.812-2.1-3.276-3.252-4.86-1.356-1.86-2.664-3.732-4.092-5.532-2.004-2.52-4.26-4.836-6.156-7.452-1.236-1.704-2.784-3.132-4.26-4.632-.996-1.008-1.968-2.04-3.012-2.988-.972-.888-1.92-1.848-2.988-2.568q-1.848-1.236-3.744-2.436a52 52 0 0 0-5.52-3.144c-2.388-1.104-4.728-2.316-7.056-3.54-.18-.096-.348-.288-.588-.156-.036.252.144.372.288.48 1.524 1.056 2.916 2.28 4.404 3.396 1.536 1.152 2.808 2.568 4.032 4.02 1.728 2.04 3.384 4.152 5.328 5.988 2.22 2.088 4.524 4.092 6.6 6.348 2.52 2.724 4.8 5.652 7.296 8.4.756.828 1.392 1.776 2.112 2.628 1.128 1.332 2.052 2.796 3.096 4.164 1.164 1.536 2.256 3.132 3.504 4.608a42 42 0 0 1 4.116 5.568c1.656 2.76 2.976 5.724 4.752 8.4.66.996 1.296 2.04 2.28 3.072Zm34.908 97.32-.264-2.16a20.4 20.4 0 0 0-2.1-7.428q-.792-1.5-1.212-3.144a55 55 0 0 0-2.316-7.02 53 53 0 0 0-4.32-8.58 26.4 26.4 0 0 0-5.352-6.048c-1.968-1.644-4.416-2.4-6.72-3.384-.384-.168-.888-.6-1.212-.324-.384.336.132.852.156 1.296l.024.144a33.6 33.6 0 0 0 2.304 7.104c.792 1.74 1.752 3.396 2.568 5.124 1.368 2.868 2.7 5.772 4.296 8.508a49 49 0 0 0 4.176 6.252 31.2 31.2 0 0 0 5.94 5.82 9.6 9.6 0 0 1 2.724 2.652c.276.444.648.924 1.308 1.188m-40.116-34.74c-.12-.624.012-1.212-.096-1.788l-1.008-5.088c-.312-1.5-.54-3.036-.984-4.5-.924-3.036-1.656-6.108-2.46-9.168-.78-2.952-1.236-5.988-2.376-8.832-.384-.948-.6-1.98-1.044-2.892-1.332-2.76-1.98-5.76-3.036-8.616-.42-1.14-.756-2.316-1.164-3.468q-1.104-3.06-2.268-6.108c-.528-1.392-.708-2.892-1.392-4.224-.228-.444-.576-.78-1.032-.792-.468 0-.432.576-.648.876q-.024.06-.024.144a27.6 27.6 0 0 0 .06 9.036q.444 2.88 1.452 5.664c.972 2.628 1.32 5.436 2.4 8.052.84 2.028 1.548 4.116 2.256 6.192.708 2.088 1.776 4.032 2.244 6.216q.276 1.176.744 2.292c.876 2.148 1.644 4.332 2.46 6.504.54 1.44.984 2.928 1.824 4.224.612.936 1.284 1.836 1.884 2.784.732 1.164 1.656 2.22 2.232 3.504Zm-9.96-148.776c.204-.132.12-.312.108-.468q-.168-2.484-.036-4.992c.096-1.884.156-3.768.06-5.652-.168-3.168-1.188-6.18-1.896-9.24-.588-2.556-1.824-4.932-2.652-7.428-.912-2.796-1.332-5.7-1.98-8.556a78 78 0 0 0-1.764-6.636c-.888-2.796-1.968-5.52-2.568-8.4-.048-.216-.096-.48-.396-.432-.3.036-.168.312-.18.48 0 2.004-.048 4.008 0 6 .084 2.784.096 5.568.396 8.328.24 2.196.36 4.416.828 6.6a71 71 0 0 0 1.32 5.244c.768 2.616 1.62 5.208 2.304 7.836.348 1.344.54 2.736.912 4.068.588 2.1 1.176 4.188 1.584 6.324a13.2 13.2 0 0 0 3.948 6.912Zm34.416 45.036c1.488-1.104 3.024-2.148 4.38-3.432 1.416-1.344 2.724-2.808 4.056-4.248a13.2 13.2 0 0 0 3.648-8.94q.156-2.82-.42-5.532-.576-2.7-.816-5.436c-.12-1.428-.132-2.856-.468-4.26-.528-2.256-1.02-4.512-1.752-6.708-.36-1.092-.66-2.232-1.596-3.204-.336 1.248-.288 2.448-.264 3.576.048 3.024.084 6.06.228 9.084.168 3.684.192 7.368-.108 11.052-.18 2.172-.768 4.272-1.272 6.396-1.02 4.296-3.072 8.064-5.616 11.652m28.008 193.224c.48-.276.828-.432 1.14-.66 1.86-1.368 3.924-2.4 6-3.372a73 73 0 0 0 6.168-3.336c2.088-1.236 4.032-2.736 5.964-4.212 1.8-1.368 3.408-2.928 4.224-5.136.504-1.356.648-2.76.84-4.308l-1.14.552c-1.44.732-2.856 1.512-4.332 2.172-3.132 1.404-6.228 2.844-8.952 4.98-1.86 1.452-3.6 3.024-5.124 4.824a30 30 0 0 0-4.116 6.66c-.252.54-.42 1.116-.684 1.824Zm-10.416-151.296c-.876.408-1.668.696-2.376 1.2-2.328 1.68-4.404 3.636-6.576 5.496a7.8 7.8 0 0 0-2.664 4.908c-.348 2.448-.048 4.86.528 7.248a51.6 51.6 0 0 0 2.82 9.144q.54 1.188 1.128 2.352c.048-.372-.06-.66-.12-.972-.408-1.968-.684-3.948-1.02-5.928q-.432-2.4.036-4.728c.408-1.944 1.32-3.768 2.316-5.496.768-1.332 1.68-2.58 2.412-3.936a41 41 0 0 0 2.76-6.048c.36-1.02.852-2.028.744-3.264Zm-39.276-.432a10.8 10.8 0 0 0-3.96-4.716 51.6 51.6 0 0 0-8.64-4.716c-.684-.264-1.32-.648-2.016-.876q-4.776-1.536-9.576-3.024c-1.908-.588-3.876-.816-5.844-1.056-.168-.024-.372-.012-.468.144-.12.216.048.36.192.504a20.4 20.4 0 0 0 5.172 3.816c3.504 1.728 7.248 2.94 10.812 4.548 1.932.876 3.876 1.764 5.964 2.184 1.872.384 3.564 1.224 5.292 2.004.96.444 1.98.768 3.048 1.176Zm45.3 101.616c1.956-.048 3.828-.06 5.7.132 1.704.168 3.408.444 5.124.228q2.7-.324 5.424-.372c2.352-.048 4.716-.048 6.924-1.044q2.364-1.056 4.272-2.808c.408-.372.312-.6-.108-.804a10.8 10.8 0 0 0-2.988-.96c-2.1-.324-4.164.036-6.228.252q-2.916.312-5.808.828-1.908.336-3.744.948a88 88 0 0 0-5.664 2.16c-.972.408-1.968.792-2.904 1.44m-53.172-144.336c.048.3.048.492.12.672a20.4 20.4 0 0 0 2.436 4.572c1.2 1.572 2.412 3.144 3.396 4.872 1.332 2.328 2.592 4.704 4.2 6.864.864 1.164 1.596 2.448 2.076 3.864q.696 2.112 1.128 4.296c.528 2.508.948 5.04 1.02 7.62.024.792.228 1.572.348 2.352l.264-.024c0-1.728-.072-3.468.012-5.184q.24-4.764-1.332-9.228a62 62 0 0 0-3.12-7.476c-1.044-2.1-2.328-4.056-3.456-6.108-.96-1.752-2.352-3.228-3.684-4.716a8.4 8.4 0 0 0-3.384-2.364Zm58.524 197.856c1.44.48 2.568 1.524 3.948 2.076.6.24 1.212.468 1.896.54 1.584.156 3.144.444 4.728.636 1.284.156 2.544.096 3.66-.684.456-.312.612-.588.036-.972-.732-.48-1.392-1.08-2.136-1.536a12 12 0 0 0-3.972-1.632c-1.164-.24-2.292-.024-3.42.168-1.608.276-3.216.588-4.728 1.404Zm-11.52-1.224c-2.664-3.504-6.444-4.968-10.548-5.856a24 24 0 0 0 10.548 5.856m-44.292-225.072c.084-.936-1.584-4.092-2.268-4.488.588 1.56 1.608 2.832 2.268 4.488"/><path d="M989.073 905.762q-.12 0-.216-.024c-1.152-.576-2.052.144-3.012.576-1.764.768-3.516 1.272-5.532.888a24 24 0 0 0-6.876.048c-2.064.228-4.104.744-6.192.54a19.2 19.2 0 0 1-4.428-.9c-1.356-.468-2.652-1.104-4.02-1.548-.468-.156-.912-.372-.936-.9-.024-.588.372-.912.912-1.092a26.4 26.4 0 0 1 5.436-1.224q4.44-.54 8.904-1.008c2.184-.24 4.368-.516 6.552-.648 1.884-.12 3.768.036 5.556.708.924.348 1.86.744 2.472 1.632q.444.684 1.272.96c.288.084.576.3.768.54.216.264.492.576.288.996-.192.396-.552.444-.936.444ZM960.5 904.49c.3.408.732.432 1.08.588 2.244.984 4.572 1.524 7.056 1.38 1.992-.108 3.912-.6 5.892-.72 1.956-.12 3.9-.276 5.856.036a6 6 0 0 0 3.396-.276c1.092-.456 2.088-1.08 3.156-1.56.492-.228.108-.384-.084-.552-1.38-1.26-3.12-1.476-4.848-1.596-3.096-.216-6.132.396-9.18.792-3.324.42-6.672.72-9.972 1.308-.78.144-1.572.288-2.352.6"/></g><g stroke-width="2.625" paint-order="stroke"><path d="M632.68 693.38c.326-.293.578-.493.809-.724 1.428-1.365 2.982-2.583 4.494-3.843l2.52-2.068c1.082-.903 2.12-1.88 3.36-2.625.683-.41 1.292-1.008 2.016-1.407.21-.116.41-.284.65-.252.41.063.505-.18.63-.504a18 18 0 0 1 2.31-4.074c.589-.798 1.219-1.617 1.965-2.342.714-.704 1.396-1.491 2.12-2.184.872-.83 1.9-1.501 2.92-2.173a18.5 18.5 0 0 1 8.704-2.982c2.657-.221 5.324-.232 7.99-.295 1.66-.042 3.276-.42 4.925-.514 2.173-.136 4.358-.4 6.468-.935 1.397-.357 2.835-.546 4.21-1.018l.41-.137c1.827-.336 3.56-1.008 5.334-1.533q2.499-.724 4.977-1.554c1.502-.525 3.024-1.03 4.494-1.617.672-.273 1.386-.483 2.048-.82a1.365 1.365 0 0 1 1.564.2c.41.326.116.778.032 1.198-.263 1.46-1.145 2.593-1.911 3.79a28.4 28.4 0 0 1-3.423 4.253c-.966.987-2.1 1.827-3.245 2.646-.871.62-1.848 1.07-2.635 1.827-.326.304-.81.483-1.23.714a66 66 0 0 1-6.561 3.244c-1.743.735-3.56 1.208-5.313 1.88-1.397.535-2.91.777-4.358 1.207-2.635.788-5.386.903-8.043 1.47-2.016.42-4.042.63-6.058 1.019-.83.158-1.68.168-2.51.2-2.551.094-4.998.798-7.497 1.186-1.186.189-2.383.252-3.58.378q-2.163.23-4.232.914c-1.417.45-2.688 1.26-4.053 1.827a16.8 16.8 0 0 0-4.714 2.835q-1.376 1.207-2.772 2.383a32.6 32.6 0 0 0-3.623 3.644c-1.102 1.249-2.373 2.32-3.496 3.517a24 24 0 0 1-2.132 1.985c-.798.66-1.46 1.5-2.194 2.226-.777.756-1.428 1.627-2.268 2.34-.62.526-1.155 1.209-1.68 1.849-.683.83-1.491 1.512-2.153 2.363-.976 1.27-2.016 2.499-3.024 3.738q-1.47 1.827-2.908 3.706c-.525.693-.977 1.49-1.533 2.12-.683.778-.924 1.849-1.775 2.469-.273.199-.294.535-.462.787q-.892 1.397-1.974 2.646c-.556.64-1.165 1.229-1.722 1.88a49.4 49.4 0 0 0-4.83 6.94c-.777 1.418-1.617 2.804-2.404 4.21-.662 1.177-1.145 2.447-1.86 3.592-.314.525-.377 1.134-.62 1.68q-1.29 2.94-2.53 5.91c-.261.64-.387 1.335-.63 1.986-.597 1.69-1.217 3.37-1.626 5.113-.042.189-.21.357-.357.588.504.01.567-.378.693-.63q.892-1.837 1.743-3.696c.042-.084.042-.2.094-.262 1.029-1.134 1.428-2.646 2.363-3.854.819-1.06 1.596-2.194 2.404-3.265.599-.798 1.397-1.491 2.069-2.268 1.06-1.218 2.289-2.268 3.412-3.413.725-.735 1.586-1.291 2.384-1.911a45 45 0 0 1 4.746-3.297q1.375-.787 2.76-1.554a86 86 0 0 1 6.1-3.192 67 67 0 0 0 3.467-1.806c1.197-.661 2.446-1.25 3.654-1.87 1.396-.713 2.772-1.48 4.2-2.141q3.097-1.428 6.11-2.982c1.954-1.008 3.99-1.89 5.89-2.992 1.083-.63 2.32-.945 3.35-1.607 1.166-.745 2.5-1.05 3.707-1.67 1.302-.661 2.793-.84 4.2-1.228q2.625-.714 5.219-1.512c.42-.126.703-.556 1.207-.588.326-.021.588.032.725.336.136.294.03.557-.2.788-1.06 1.018-1.932 2.205-2.92 3.286-1.322 1.449-2.393 3.108-3.905 4.42-.556.484-1.05 1.156-1.512 1.786-.504.693-1.134 1.28-1.69 1.91-.83.946-1.66 1.9-2.541 2.783-.767.767-1.65 1.439-2.468 2.153-1.018.882-2.163 1.564-3.297 2.236-1.24.746-2.446 1.544-3.717 2.247-1.281.704-2.614 1.344-3.864 2.12q-1.89 1.177-3.696 2.448c-1.155.808-2.404 1.49-3.538 2.373-1.092.85-2.447 1.365-3.665 2.047-1.197.672-2.572 1.008-3.633 1.922-.41.346-.966.357-1.438.63l-3.423 1.932c-1.082.598-2.258.997-3.287 1.69-.451.305-1.03.42-1.501.672-1.491.798-3.035 1.46-4.547 2.195-.82.399-1.627.882-2.52 1.176-.693.23-1.312.766-2.026 1.029a42 42 0 0 0-4.022 1.753 23 23 0 0 0-3.444 1.974q-1.155.882-2.362 1.712c-.483.325-.84.703-.935 1.302-.021.126.02.378-.157.336-.504-.126-.6.262-.693.535-.431 1.197-1.103 2.279-1.701 3.38a57 57 0 0 0-2.247 4.768c-.431 1.008-.683 2.09-1.071 3.129-.693 1.848-.966 3.812-1.596 5.66-.452 1.333-.683 2.76-1.271 4.02-.82 1.755-1.144 3.634-1.753 5.44-.578 1.68-.735 3.518-.966 5.303-.21 1.585.115 3.108.325 4.64.168 1.166.305 2.342.546 3.487.22 1.018.515 2.016.65 3.055q.526 3.812.799 7.655c.179 2.562.515 5.113.788 7.675q.378 3.549.052 7.119-.105 1.292-.084 2.594c.032 2.1-.105 4.2-.525 6.237-.462 2.226-.64 4.525-1.386 6.678-.672 1.942-1.165 3.937-1.711 5.91a18.9 18.9 0 0 0-.504 6.375c.168 2.604.23 5.218.462 7.822.084.924-.116 1.848.052 2.72.357 1.89.126 3.79.357 5.67.116.976-.021 1.963.095 2.95q.084.756-.693.935c-1.512.304-1.86-.053-1.88-1.23q-.105-4.65-.262-9.281c-.053-1.533-.032-3.087-.305-4.588-.483-2.688-.41-5.387-.43-8.085 0-1.65-.084-3.297-.074-4.956 0-1.134-.346-2.195-1.533-2.877a35 35 0 0 1-4-2.804c-.672-.525-1.25-1.186-1.806-1.848-.263-.325-.588-.546-.882-.82-.82-.797-1.86-1.28-2.751-1.973-.525-.41-1.134-.714-1.701-1.071-1.407-.892-2.982-1.291-4.547-1.795-1.144-.368-2.394-.494-3.444-1.124-.63-.378-1.176-.871-1.806-1.24-.766-.45-1.407-1.06-2.173-1.521q-1.397-.851-2.531-2.142-.735-.851-1.575-1.586c-.672-.567-1.197-1.26-1.858-1.837-.861-.746-1.796-1.313-2.741-1.901-1.554-.976-3.36-1.312-4.987-2.11-.977-.473-2.121-.61-3.13-1.03-2.236-.923-4.472-1.868-6.772-2.645-.892-.305-1.774-.672-2.72-.84a2.03 2.03 0 0 1-1.154-.662c-.357-.4-.441-.808 0-1.24a5.25 5.25 0 0 1 2.278-1.406c1.376-.378 2.615-1.123 4.043-1.396 2.299-.452 4.599-.662 6.93-.42 2.026.21 4.074.283 6.079.619 1.166.189 2.384.074 3.528.546.305.126.809.095 1.229.116 1.732.084 3.486.273 5.113.808 1.89.63 3.749 1.439 5.27 2.825q1.89 1.764 3.77 3.549c.179-.168.137-.336.043-.473-.756-1.25-.998-2.688-1.334-4.063-.378-1.533-.955-3.003-1.354-4.536-.756-2.92-1.565-5.807-1.88-8.82-.126-1.187-.493-2.342-.546-3.528-.073-1.554-.241-3.12-.136-4.683.115-1.817.063-3.654.304-5.46.357-2.615.494-5.24.704-7.854.262-3.161.346-6.332.472-9.503.084-2.331.263-4.651.105-6.972l-.157-2.373c-.074-.997.609-1.396 1.29-1.68.495-.21 1.04.2 1.45.536a7.35 7.35 0 0 1 2.027 2.54c.199.43.672.662.913 1.093.672 1.176 1.575 2.205 2.289 3.339.672 1.06 1.607 1.92 2.184 3.066.294.598.85 1.05 1.229 1.638 1.08 1.7 2.184 3.39 2.95 5.27.032.085.053.19.23.2-.072-1.26-.114-2.52-.22-3.77a78 78 0 0 1-.22-6.257c0-1.775-.063-3.55-.063-5.324q0-3.612-.42-7.171a105 105 0 0 1-.546-5.702c-.094-1.501-.2-3.013-.2-4.525 0-1.061-.146-2.142-.22-3.224q-.231-3.15-.4-6.3c-.02-.441-.293-.766-.324-1.218-.273-3.56-.441-7.13-.4-10.7 0-.661-.272-.902-.818-1.04a19 19 0 0 1-4.368-1.542 8.4 8.4 0 0 0-2.541-.903c-.704-.126-1.355-.368-2.07-.063-.345.157-.723.073-1.112-.063-1.113-.368-2.236-.137-3.34.126a32.6 32.6 0 0 0-5.837 1.974c-1.428.65-2.94 1.039-4.336 1.743-.935.472-1.995.682-2.94 1.134a60 60 0 0 1-4.725 1.932c-1.134.43-2.384.567-3.54.966-1.847.63-3.758 1.039-5.585 1.732-1.155.44-2.404.65-3.643.798a35.7 35.7 0 0 1-6.657.095c-2.321-.168-4.631-.084-6.951-.19-2.027-.094-4.064-.146-6.048-.598-1.65-.378-3.33-.703-4.946-1.207-3.034-.956-6.184-1.134-9.282-1.712-.441-.084-.735-.367-1.134-.504-.283-.094-.21-.546 0-.82.368-.45.872-.744 1.386-.996q2.426-1.197 4.872-2.352 2.552-1.218 5.135-2.363c1.176-.535 2.446-.861 3.58-1.438 1.502-.767 3.203-1.008 4.662-1.89a6.3 6.3 0 0 1 2.09-.725c1.375-.273 2.562-1.03 3.895-1.428 1.806-.546 3.486-1.491 5.345-1.911.598-.136 1.07-.567 1.68-.745.892-.263 1.837-.39 2.709-.746 2.226-.924 4.599-1.071 6.95-1.197 1.376-.073 2.773.032 4.159.21.304.042.619 0 .892 0-2.09-.966-4.39-1.543-6.321-2.877-1.291-.882-2.583-1.753-3.801-2.761a71 71 0 0 1-3.77-3.36 20 20 0 0 1-1.88-2.016 15.6 15.6 0 0 0-1.962-2.027c-.756-.64-1.25-1.47-1.88-2.194-.567-.651-1.197-1.271-1.66-2.006-.597-.945-1.427-1.701-2.151-2.53-1.113-1.271-2.08-2.688-3.413-3.77-.315-.252-.41-.682-.693-.997a23.1 23.1 0 0 1-4.074-5.754c-.504-1.092-1.25-2.07-1.522-3.255-.116-.504-.263-1.03.157-1.428.389-.368.86-.147 1.344-.105 1.019.084 1.943.493 2.94.63.798.105 1.523.493 2.3.724.945.284 1.974.336 2.835.777 1.323.693 2.814.935 4.095 1.764.567.368 1.312.557 1.995.788q2.12.703 4.084 1.71c1.292.663 2.75.967 3.906 1.89.305.243.756.274 1.134.442 1.869.86 3.675 1.848 5.555 2.657 1.827.798 3.59 1.732 5.47 2.446a20 20 0 0 1 3.38 1.523c.883.535 1.933.724 2.72 1.323 1.03.787 2.29 1.092 3.308 1.89.85.66 1.88 1.134 2.856 1.627 2.394 1.208 4.778 2.426 7.077 3.8 1.197.715 2.268 1.65 3.444 2.427.798.514 1.502 1.144 2.226 1.732a20 20 0 0 1 4.263 4.473c.179-.42.2-.766.189-1.102-.063-3.623-.094-7.256-.231-10.878-.126-3.34-.073-6.668-.073-10.007 0-1.124-.074-2.257-.357-3.402-.4-1.617-.63-3.297-1.124-4.903-.955-3.066-.735-6.321-1.48-9.408-.452-1.87-.756-3.801-1.386-5.607a6.3 6.3 0 0 0-2.027-2.752c-1.26-.955-2.026-2.404-3.286-3.36-.777-.588-1.47-1.291-2.415-1.68-.704-.294-1.197-.924-1.712-1.47-.367-.4-.651-.808-1.176-1.081a6.3 6.3 0 0 1-1.638-1.365c-.83-.935-1.848-1.586-2.866-2.28-1.344-.912-2.49-2.12-3.833-3.023-1.134-.777-2.037-1.837-3.265-2.5-.252-.135-.4-.471-.641-.66a24 24 0 0 0-3.35-2.352c-.293-.168-.524-.4-.776-.578-.977-.672-1.806-1.533-2.646-2.352-.693-.672-1.512-1.207-2.174-1.921-.62-.672-1.417-1.186-2.163-1.732-.871-.641-1.543-1.481-2.341-2.195-.83-.735-1.407-1.68-2.247-2.415-.651-.567-1.166-1.302-1.743-1.964-.704-.808-1.533-1.46-2.237-2.268a22 22 0 0 0-2.646-2.625c-.766-.62-1.333-1.365-1.9-2.09-.683-.86-1.544-1.532-2.184-2.425-.39-.546-1.134-.735-1.523-1.375-.294-.483-.357-.903-.052-1.334.336-.472.84-.357 1.239-.126q1.165.693 2.268 1.49.924.663 1.869 1.272 1.386.882 2.814 1.68c.945.546 1.963.966 2.94 1.449 1.407.693 2.835 1.313 4.22 2.058.967.525 1.796 1.229 2.73 1.796 1.649.987 3.16 2.184 4.747 3.255 1.47.987 2.992 1.92 4.462 2.908.966.65 1.859 1.46 2.72 2.289q1.417 1.376 2.845 2.72a84 84 0 0 0 4.946 4.336q1.08.84 2.037 1.859c.65.693 1.197 1.512 1.963 2.1.284.21.305.525.483.777.63.892 1.334 1.722 1.995 2.583.62.808 1.334 1.575 2.048 2.33.945 1.009 1.89 2.038 2.635 3.245 1.292 2.11 1.974 4.452 2.856 6.73.65 1.68.893 3.476 1.523 5.125a31.5 31.5 0 0 1 1.459 5.313c.042.189.02.525.294.504.305-.021.158-.347.168-.525q.23-5.618 1.05-11.183c.452-3.13.536-6.29 1.124-9.397q.577-3.066 1.27-6.09c.273-1.218.242-2.49.588-3.686.64-2.173.777-4.462 1.712-6.573.472-1.081.672-2.3.892-3.475.263-1.334.777-2.604 1.029-3.938.368-1.932 1.376-3.643 1.827-5.554.21-.924.819-1.701 1.06-2.636.368-1.375.935-2.72 1.145-4.116.326-2.257.23-4.546.074-6.835-.053-.788.02-1.607-.651-2.184-1.533-1.313-3.087-2.51-5.303-2.373-1.932.115-3.885.052-5.817.168-2.53.157-5.061.168-7.54-.231-2.981-.494-5.963-.242-8.945-.4-1.837-.094-3.675-.2-5.45-.766a7.4 7.4 0 0 1-1.165-.525c-.777-.42-1.67-.525-2.541-.661-1.533-.231-2.92-.935-4.39-1.365-1.374-.4-2.676-.987-4.041-1.397-1.03-.304-1.932-.997-2.867-1.554-1.47-.882-3.076-1.45-4.683-2.026-1.008-.368-2.09-.714-2.898-1.376-1.46-1.197-3.066-2.205-4.473-3.475-.514-.462-1.302-.6-1.543-1.407-.168-.588-.063-.882.525-.977l4.945-.82q2.846-.471 5.733-.345 3.245.157 6.479.273c1.638.052 3.286.168 4.85.567 1.408.357 2.825.672 4.222 1.05.955.262 1.953.262 2.919.43 2.719.483 5.48.525 8.22.777q2.206.21 4.453.242c2.006.03 3.843.735 5.67 1.428 1.722.65 3.528 1.029 5.219 1.732 1.113.462 2.236 1.019 3.16 1.848.137.116.284.158.43.23a7.35 7.35 0 0 1 3.14 2.857c.357.65.914 1.166 1.218 1.848.588 1.313 1.355 2.53 1.827 3.906.42 1.208.788 2.457 1.418 3.58.682 1.229.63 2.52.66 3.833v.798c.348-.084.369-.357.453-.556.65-1.554 1.5-3.014 2.32-4.494.714-1.292 1.533-2.51 2.258-3.801.903-1.617 1.91-3.171 2.887-4.746.966-1.554 1.995-3.066 2.909-4.652.798-1.396 1.848-2.614 2.698-3.958l1.848-2.877c1.019-1.554 1.785-3.234 2.625-4.872.62-1.197 1.48-2.3 1.743-3.654.305-1.586 1.26-3.003 1.082-4.715-.105-1.018-.063-2.026-.693-2.94-.326-.472-.431-1.113-.62-1.68-.493-1.428-1.302-2.72-2.047-4.011-.452-.777-.756-1.648-1.281-2.362q-.735-1.03-1.45-2.09c-.63-.934-1.081-1.942-1.627-2.92-.892-1.584-1.323-3.317-1.764-5.03-.703-2.707-.976-5.48-.252-8.262.41-1.564.819-3.14 1.512-4.6a63 63 0 0 1 2.32-4.41c.767-1.332 1.565-2.687 1.849-4.251.073-.441.24-.788.777-.767.546.02.535.462.63.83.598 2.457 1.092 4.956 1.837 7.36.462 1.49.85 3.014 1.439 4.473a31.5 31.5 0 0 1 2.289 8.316c.189 1.733.798 3.392 1.134 5.093.336 1.71.399 3.465.315 5.218-.074 1.575.063 3.16 0 4.746-.074 1.848-.263 3.686-.368 5.534-.021.45-.262.819-.42 1.197-.546 1.354-.115 2.898-.861 4.2-.661 1.155-1.24 2.33-1.995 3.433-.861 1.25-1.89 2.394-2.646 3.959 1.7-1.281 3.213-2.478 4.788-3.591 1.764-1.25 3.518-2.51 5.355-3.675a49 49 0 0 0 4.767-3.36c.86-.693 1.712-1.418 2.604-2.09.536-.41.935-.976 1.48-1.428a49 49 0 0 1 4.474-3.412q2.11-1.376 4.305-2.636c1.344-.766 2.76-1.365 4.168-1.953 1.28-.535 2.73-.766 4.127-.945 1.155-.147 2.31-.367 3.465-.462l4.578-.325c2.562-.18 5.134-.18 7.686-.483 1.092-.137 2.205-.18 3.297-.315 1.512-.19 2.96-.672 4.483-.84 1.113-.126 2.258-.231 3.318-.557 1.418-.43 2.888-.63 4.316-.987q1.176-.304 2.373-.577c.367-.084.766-.042.913.378.179.525.032 1.07-.41 1.354-.871.557-1.532 1.355-2.341 1.985-1.344 1.039-2.761 1.984-4.116 3.013-.808.62-1.69 1.029-2.572 1.49-2.247 1.209-4.662 1.996-7.004 2.962-1.764.725-3.622 1.05-5.407 1.659-1.86.64-3.76.935-5.691 1.008q-3.287.126-6.584.147c-1.816 0-3.675.02-5.46.357-2.835.536-5.754.389-8.536 1.155-1.89.525-3.78 1.103-5.418 2.279-.914.66-1.932 1.186-2.961 1.68-.714.346-1.302.945-1.953 1.428a31.5 31.5 0 0 1-4.988 3.097 12.6 12.6 0 0 0-3.36 2.363q-1.176 1.123-2.457 2.163c-.252.21-.346.525-.567.735-1.386 1.28-2.32 2.919-3.55 4.315-.681.777-1.29 1.628-1.983 2.394q-1.344 1.48-2.51 3.17-.84 1.24-1.711 2.437c-.861 1.166-1.554 2.468-2.28 3.728-.62 1.08-1.164 2.226-1.973 3.202-.315.378-.43.85-.661 1.27a66 66 0 0 0-2.132 4.348c-.735 1.669-1.46 3.349-2.32 4.966-1.05 1.974-2.058 3.98-2.877 6.059a37 37 0 0 0-1.943 6.436c-.21 1.082-.693 2.132-1.018 3.203-.63 2.079-1.45 4.095-1.89 6.237-.158.787-.431 1.554-.588 2.352-.053.283-.095.556-.021.903.745-.735 1.008-1.701 1.522-2.52 1.145-1.827 2.216-3.696 3.392-5.502s2.677-3.34 4.032-4.977c1.113-1.344 2.32-2.625 3.318-4.043a26.3 26.3 0 0 0 2.436-4.263c.535-1.176.934-2.404 1.459-3.57.64-1.396.903-2.908 1.586-4.263.525-1.04.735-2.268 1.438-3.16.735-.924 1.27-1.974 2.027-2.898q1.417-1.722 2.814-3.465c.724-.893 1.575-1.65 2.34-2.468.736-.787 1.545-1.575 2.469-2.226 1.26-.882 2.478-1.827 3.717-2.73q1.596-1.176 3.244-2.3c1.838-1.228 3.654-2.488 5.534-3.653 1.627-1.008 3.234-2.048 4.893-3.024a73 73 0 0 0 6.237-3.99c.378-.284.819-.441 1.144-.83.273-.315.767-.493 1.103-.178s.504.745.199 1.29c-1.071 1.944-2.173 3.855-3.15 5.85a44 44 0 0 1-2.835 5.04c-1.04 1.585-1.974 3.234-3.045 4.798-.955 1.386-1.848 2.814-2.814 4.19a28.4 28.4 0 0 1-2.95 3.738c-1.082 1.08-1.974 2.34-3.045 3.444-.84.86-1.806 1.596-2.73 2.383-.672.567-1.428 1.029-2.121 1.554-.714.557-1.481 1.05-2.163 1.638a23 23 0 0 1-3.55 2.363c-.724.409-1.322.987-2.078 1.365q-1.911.945-3.833 1.848c-1.06.514-2.058 1.165-3.055 1.795-.788.494-1.565 1.019-2.541 1.019q-.284.01-.4.262c-.755 1.554-1.984 2.75-3.002 4.106-.588.787-1.302 1.47-1.964 2.142-.724.735-1.407 1.543-2.1 2.299-.892.987-1.816 2.027-2.488 3.224-.61 1.07-1.302 2.1-1.964 3.139-.19.305-.493.546-.567.903-.19.882-.903 1.439-1.375 2.12a13.65 13.65 0 0 0-2.153 5.22c-.567 2.929-1.102 5.859-1.45 8.83-.471 3.969-.681 7.959-1.175 11.918-.178 1.428-.157 2.877-.357 4.294-.126.893.042 1.764 0 2.646-.147 2.783.273 5.544.084 8.327-.115 1.669.053 3.349-.073 5.008-.074.945.02 1.9-.2 2.846-.115.483.2 1.039.2 1.606 0 2.016.084 4.032.136 6.048 0 .063.042.126.105.294l.525-1.071c1.103-2.058 1.439-4.336 1.932-6.573q.452-1.984 1.04-3.937a35.7 35.7 0 0 0 1.48-7.067c.137-1.921.168-3.832.22-5.754.053-1.87-.052-3.748.137-5.596a9.5 9.5 0 0 1 1.05-3.476c.956-1.774 1.859-3.591 3.014-5.24a22 22 0 0 1 3.339-4.021c.882-.777 1.669-1.67 2.572-2.425 1.176-.977 2.237-2.111 3.602-2.856.577-.315.945-.903 1.575-1.208.997-.483 1.9-1.155 2.824-1.743a27 27 0 0 1 3.948-2.068c2.237-.966 4.484-1.911 6.783-2.73 1.418-.504 2.846-.945 4.263-1.45 1.355-.472 2.73-.84 4.095-1.28 2.12-.683 4.316-1.071 6.447-1.701 2.1-.63 4.263-.861 6.363-1.376 2.405-.588 4.904-.745 7.266-1.428 1.838-.535 3.728-.798 5.576-1.228 2.467-.578 5.008-.903 7.497-1.386 1.008-.2 1.984-.525 2.982-.788.399-.105.86-.21 1.155.147.283.336.052.756-.084 1.103a17 17 0 0 1-1.292 2.55 36 36 0 0 1-2.32 3.37c-.903 1.209-2.09 2.133-3.255 3.068-1.386 1.123-2.92 2.016-4.431 2.95q-1.785 1.124-3.633 2.12c-1.407.747-2.793 1.545-4.211 2.28-1.88.976-3.832 1.753-5.754 2.635-2.026.935-4.2 1.439-6.216 2.394-.556.263-1.197.347-1.795.525a66 66 0 0 1-6.384 1.617 18.2 18.2 0 0 0-4.673 1.596c-1.081.546-2.1 1.28-3.13 1.943-1.08.703-2.13 1.522-3.36 2.005-.755.294-1.27.966-2.067 1.25-1.701.598-3.33 1.407-5.02 2.058q-2.047.766-4.147 1.375c-1.69.515-3.36 1.092-5.176 1.229a18.2 18.2 0 0 0-4.683.987c-.767.273-.693 1.06-.693 1.669 0 2.373.157 4.757-.273 7.088-.347 1.89-.431 3.8-.83 5.67-.241 1.123-.262 2.299-.588 3.39q-.483 1.566-.798 3.16c-.084.42-.136.863-.294 1.26-.64 1.66-1.113 3.393-1.942 4.989q-.42.84-.641 1.754c-.325 1.218-.871 2.362-1.291 3.538a15.8 15.8 0 0 0-.735 5.733c.03 1.722.115 3.455.084 5.177-.021.945.43 1.71.724 2.53.63 1.722 1.029 3.539 1.775 5.187.64 1.418.966 2.93 1.617 4.326.262.567.336 1.25.388 1.89.22 2.226.21 4.452.168 6.689-.031 1.774-.82 3.37-1.407 4.998-.808 2.226-1.711 4.42-1.722 6.835q.01 2.3.179 4.599.273 3.969.63 7.938c.073.83.23 1.68.252 2.478.03 1.25.105 2.499.126 3.759.063 3.864.136 7.718.346 11.57q.23 4.705.41 9.42.052 1.323.042 2.656c0 .882.294 1.649.766 2.394.62.987.746 2.205 1.376 3.203.073.115.115.283.346.262q.179-1.743.714-3.412c.567-1.701.83-3.497 1.47-5.156s.882-3.423 1.47-5.071c.777-2.195 1.229-4.484 2.058-6.668q1.019-2.772 2.142-5.47c.83-1.964 1.449-3.99 2.12-5.996q1.209-3.517 2.343-7.056c.462-1.46.976-2.961 1.806-4.315.493-.81.703-1.775 1.07-2.667.652-1.617 1.009-3.35 1.628-4.967.399-1.03.725-1.984.294-3.013-.724-1.733-1.05-3.55-1.365-5.387-.168-.976-.483-1.932-.83-2.856-.556-1.45-.472-2.982-.734-4.462-.6-3.308-.221-6.657-.6-9.965a43 43 0 0 0-.555-3.475c-.18-.914-.18-1.817-.137-2.73q.22-5.072.567-10.143c.105-1.502.063-3.035.483-4.484q.525-1.827.882-3.675c.41-2.142 1.103-4.2 1.7-6.29.306-1.05.757-2.057 1.177-3.076.546-1.291 1.06-2.604 1.7-3.853.684-1.323 1.219-2.72 2.08-3.97.504-.734.935-1.532 1.512-2.236q.462-.588 1.103-.903c1.207-.598 2.079-.147 2.257 1.187.23 1.7.525 3.412.599 5.124.084 1.89-.074 3.78-.095 5.67-.031 2.299.032 4.599-.052 6.898q-.126 3.245-.105 6.479c.01 1.995.115 4 .45 5.932.306 1.764.253 3.497.117 5.208q-.19 2.205-.6 4.389c-.44 2.447-1.385 4.725-2.267 7.014-.745 1.943-1.123 3.938-1.606 5.922-.452 1.848-.431 3.728-.788 5.576.609-1.722 1.355-3.392 2.079-5.051.557-1.27.83-2.667 1.523-3.822.766-1.281.966-2.73 1.659-4.021.514-.956.766-2.08.976-3.15.147-.725.557-1.302.788-1.964.252-.714.378-1.47.672-2.184.472-1.186.798-2.425 1.239-3.622.535-1.481 1.06-2.961 1.69-4.4.987-2.257 1.974-4.515 3.108-6.688q.987-1.88 2.09-3.717a37.8 37.8 0 0 1 5.69-7.592l3.529-3.517c.85-.851 1.858-1.554 2.803-2.3q1.932-1.491 3.885-2.971l3.38-2.562c.81-.62 1.68-1.176 2.448-1.848q1.176-1.04 2.404-1.995c1.208-.935 2.436-1.89 3.854-2.552.598-.283 1.144-.661 1.71-1.008q.42-.241.894-.231c.44 0 .934.042 1.134.462.178.368-.042.767-.252 1.134-.378.662-.61 1.418-1.008 2.058-.81 1.27-1.176 2.74-1.901 4.053-.462.83-.661 1.796-1.113 2.636-.661 1.207-.976 2.572-1.816 3.696-.263.357-.378.829-.578 1.239-.745 1.575-1.375 3.202-2.1 4.777a34 34 0 0 1-1.743 3.486c-.777 1.28-1.596 2.53-2.29 3.864-.366.704-1.08 1.187-1.322 2.142Zm-60.448 26.408a4.2 4.2 0 0 0-.388-1.386c-.452-.861-.84-1.753-1.26-2.625-1.02-2.142-1.764-4.41-3.245-6.331-.745-.966-1.302-2.111-2.163-2.982q-1.04-1.05-2.184-2.006c-.808-.672-1.69-1.26-2.478-1.964-1.102-.987-2.425-1.68-3.612-2.551-.997-.724-2.121-1.218-3.16-1.89-.893-.578-1.932-.977-2.91-1.46-1.333-.661-2.54-1.501-3.81-2.257-1.134-.672-2.363-1.155-3.455-1.911-1.008-.693-2.247-.956-3.35-1.554a23 23 0 0 0-3.317-1.46c-1.607-.577-3.046-1.46-4.631-2.047-.357-.136-.756-.22-1.06-.441-1.25-.934-2.762-1.323-4.096-2.09-.672-.388-1.522-.556-2.12-.965-1.082-.735-2.332-1.02-3.455-1.607a41 41 0 0 0-4.053-1.827c-.4-.157-.84-.262-1.207-.472-1.723-1.008-3.686-1.428-5.503-2.216-1.26-.535-2.677-.714-4.032-1.05-.157-.042-.367-.126-.472.032-.126.199.052.367.178.493.788.798 1.323 1.806 2.216 2.51.976.777 1.743 1.827 3.024 2.184q.493.126.83.682c-.641-.126-1.072-.493-1.576-.693a5.25 5.25 0 0 1-2.005-1.333c-.704-.777-1.47-1.512-2.205-2.268-.473-.494-1.008-.945-1.145-1.66-.052-.283-.262-.451-.525-.356-.294.105-.168.44-.052.535.64.567.693 1.47 1.197 2.1.808 1.008 1.323 2.216 2.194 3.224.63.714 1.208 1.522 1.827 2.257 1.344 1.596 2.793 3.098 4.137 4.683q2.069 2.478 4.19 4.904a89 89 0 0 0 4.704 5.07q2.152 2.1 4.504 3.97a23 23 0 0 0 4.84 2.993c1.954.882 3.949 1.68 6.017 2.236.504.137.798.599 1.334.662 1.102.136 2.079.64 3.055 1.134.515.252 1.008.546 1.533.766a85 85 0 0 0 3.528 1.407c1.25.462 2.415 1.124 3.738 1.365 1.67.294 3.108 1.176 4.662 1.754.798.294 1.344.966 2.132 1.27 1.323.515 2.614 1.134 4.032 1.407a5.4 5.4 0 0 1 1.92.756c.589.399 1.209.63 1.88.819 1.019.284 2.227.053 2.95 1.124.4.588 1.156.64 1.713.976a6.3 6.3 0 0 0 2.005.725c.22.042.389.105.578-.105.23-.263 0-.494-.074-.641a5.25 5.25 0 0 0-1.795-1.722c-.725-.451-1.502-.83-1.943-1.732.86.44 1.397 1.239 2.363 1.543Zm5.67 122.556q.378-.252.399-.63c0-1.082.273-2.131.378-3.202.126-1.44.189-2.877.336-4.305.23-2.205.263-4.41.378-6.615.157-3.12.105-6.237-.39-9.335-.293-1.827-.261-3.685-.366-5.523-.126-2.1-.126-4.2-.62-6.28-.315-1.301-.41-2.666-.693-3.98-.483-2.245-1.092-4.471-1.05-6.802a6.3 6.3 0 0 0-.966-3.57 14.5 14.5 0 0 1-1.67-3.35c-.63-1.764-1.595-3.412-1.994-5.26-.242-1.103-.83-2.08-1.124-3.15-.567-2.08-1.648-3.906-2.677-5.765-.578-1.04-1.365-1.921-1.995-2.92-.546-.86-1.24-1.605-1.796-2.466-.913-1.418-2.12-2.625-2.856-4.17-.094-.2-.294-.43-.493-.345-.42.189-.42-.105-.494-.336-.042-.137.053-.347-.262-.4.22 2.563 0 5.104-.053 7.634-.073 3.056-.262 6.1-.451 9.146-.095 1.48-.462 2.929-.515 4.41q-.105 2.415-.252 4.819a59 59 0 0 0-.126 6.689c.137 2.383.263 4.767.914 7.098.514 1.848.672 3.78 1.323 5.617.66 1.859.798 3.875 1.533 5.733.546 1.386.745 2.888 1.312 4.295a40 40 0 0 0 1.89 4.22c.64 1.177 1.45 2.227 2.195 3.308.882 1.28 1.963 2.415 2.75 3.79.862 1.492 1.513 3.067 2.195 4.63.756 1.734 1.28 3.57 2.384 5.146a8.4 8.4 0 0 1 1.06 2.562 5.25 5.25 0 0 0 1.229 2.33c0-.24.02-.377 0-.513-.4-2.09-.315-4.242-.798-6.321a31.5 31.5 0 0 1-.725-4.316c-.126-1.354-.82-2.541-.966-3.874-.126-1.145-.23-2.29-.546-3.413-.23-.82-.294-1.69-.43-2.541.168.042.22.116.252.2.567 1.596.672 3.307 1.218 4.914.472 1.396.682 2.877 1.06 4.305.452 1.7.83 3.412 1.04 5.166.136 1.113.126 2.247.462 3.37m1.554-178.006c.136.147.336.094.514.073 2.804-.42 5.628-.64 8.369-1.512 2.425-.777 4.82-1.648 7.213-2.51 2.373-.85 4.358-2.32 6.479-3.56 1.186-.692 2.205-1.69 3.402-2.351s2.52-1.155 3.822-1.585c1.827-.6 3.78-.714 5.617-1.386 1.607-.588 3.34-.746 4.925-1.491 1.218-.578 2.572-.82 3.822-1.376 2.247-1.008 4.578-1.816 6.783-2.95 1.816-.935 3.643-1.838 5.428-2.825 1.376-.756 2.804-1.407 4.148-2.215 1.207-.735 2.446-1.428 3.549-2.352a29 29 0 0 0 2.635-2.447c.62-.661 1.07-1.45 1.638-2.121a11.6 11.6 0 0 0 1.922-3.15c-.252-.126-.473-.042-.704.02-1.48.358-2.94.768-4.43 1.009-2.174.357-4.337.65-6.48 1.218-2.561.672-5.186 1.124-7.78 1.68-2.656.578-5.365.903-8.011 1.586-1.544.399-3.108.66-4.63 1.155-1.712.556-3.518.819-5.261 1.365q-2.877.924-5.723 1.932c-.82.283-1.732.399-2.425.86-1.26.84-2.7 1.219-4.043 1.765a36.8 36.8 0 0 0-7.16 3.8c-.988.683-1.985 1.355-2.92 2.143-.682.588-1.428 1.165-2.142 1.722a14.7 14.7 0 0 0-2.604 2.415q-.661.829-1.438 1.564c-.788.756-1.407 1.638-1.943 2.52-.808 1.344-1.774 2.583-2.467 4-.473.967-.924 1.933-1.176 2.983-.032.136-.095.294.105.346.157.042.315-.01.357-.168.189-.766.777-1.218 1.29-1.743 1.062-1.081 2.112-2.163 3.309-3.097.22-.18.556-.242.735-.452 1.176-1.396 2.73-2.3 4.23-3.213 1.807-1.102 3.729-2.005 5.45-3.276 1.345-.997 2.857-1.774 4.264-2.698.388-.252.808-.735 1.449-.546-.945.703-1.827 1.428-2.846 1.953q-.756.409-1.438.913c-1.292.924-2.688 1.68-3.99 2.594q-1.785 1.228-3.644 2.352a27 27 0 0 0-3.475 2.583c-.714.619-1.386 1.302-2.07 1.932-.881.819-1.91 1.48-2.624 2.54ZM555.6 717.72c.2-.053.588.189.682-.158.074-.283-.315-.367-.525-.504-1.197-.714-2.53-1.123-3.832-1.554-1.722-.577-3.455-1.092-5.166-1.722-.956-.346-1.764-.913-2.646-1.354-.588-.284-1.23-.42-1.785-.756-.987-.6-2.11-.725-3.213-.924-1.985-.368-4-.441-6.006-.557-.903-.052-1.827-.136-2.71-.021-2.603.336-5.207.65-7.654 1.743-1.144.515-2.383.756-3.56 1.25-2.666 1.134-5.46 1.932-8.137 3.066-1.24.525-2.562.882-3.8 1.449-1.103.504-2.28.829-3.413 1.28-2.657 1.04-5.23 2.248-7.854 3.35-.462.2-.987.294-1.386.578-1.25.882-2.751 1.207-4.043 1.974-.147.084-.325.168-.283.357.03.157.21.168.357.178q.672.032 1.344.179c1.27.304 2.562.493 3.832.777 1.512.336 3.077.472 4.547.987 1.354.472 2.75.85 4.158 1.039q4.242.557 8.526.399c2.404-.073 4.82.189 7.234.126.105 0 .21.126.326.147.21.032.44.095.64.042.515-.136 1.05-.19 1.575-.294.683-.136 1.376-.136 2.058-.325 1.334-.357 2.667-.693 3.938-1.26 1.218-.536 2.54-.756 3.79-1.23 1.544-.576 3.234-.744 4.757-1.48.987-.472 2.11-.703 3.034-1.27 1.25-.777 2.678-1.06 3.98-1.701.83-.41 1.837-.535 2.688-.945a47 47 0 0 1 6.426-2.446c.66-.21 1.323-.441 2.1-.41Zm88.546-51.251c-.346.168-.598.252-.82.389-1.616.945-3.023 2.184-4.545 3.276q-2.016 1.48-3.99 3.013c-1.03.788-2.016 1.617-3.077 2.352-.955.662-1.91 1.365-2.772 2.12-.85.747-1.806 1.356-2.646 2.133-.86.798-1.816 1.522-2.656 2.352q-1.596 1.575-3.056 3.297a43 43 0 0 0-3.465 4.525 70 70 0 0 0-2.92 4.893c-.996 1.869-1.847 3.812-2.76 5.723-.42.882-.62 1.9-1.113 2.709-.81 1.333-1.05 2.845-1.69 4.22-.746 1.607-1.198 3.35-1.733 5.05-.4 1.27-.83 2.52-1.397 3.718-.315.683-.4 1.428-.777 2.09-.871 1.512-1.365 3.192-2.131 4.767-.893 1.827-1.512 3.81-2.457 5.617-.536 1.019-.882 2.09-1.323 3.14q-.063.21-.18.388c-.765.882-.755 2.027-1.101 3.056.577-.483.808-1.187 1.123-1.785 1.03-1.943 2.447-3.623 3.59-5.481.19-.305.222-.714.558-.903 1.029-.567 1.302-1.712 2.005-2.541.998-1.166 1.754-2.541 2.604-3.812.504-.756 1.134-1.396 1.638-2.142.704-1.05 1.565-1.984 2.394-2.93q.956-1.133 1.995-2.215c.82-.84 1.45-1.89 2.29-2.71.713-.692 1.29-1.5 1.952-2.225q1.45-1.564 2.867-3.16c1.04-1.166 2.184-2.268 3.066-3.54.609-.87 1.28-1.7 1.89-2.571s1.365-1.66 2.005-2.52c.473-.63.935-1.323 1.575-1.838a9.5 9.5 0 0 0 2.09-2.3c.44-.692 1.008-1.312 1.396-2.047.273-.525.462-1.113.84-1.575.85-1.06 1.418-2.31 2.08-3.486 1.06-1.87 1.753-3.927 2.624-5.89.61-1.376 1.302-2.7 1.89-4.074.21-.483.378-.998.683-1.428.766-1.071.976-2.384 1.585-3.55-.777.557-1.312 1.387-2.205 1.807 1.344-1.953 3.297-3.465 4.074-5.933Zm-.19 57.204c.42-.336.799-.756 1.272-.997 1.27-.651 2.34-1.596 3.507-2.394q1.134-.777 2.257-1.607c1.386-1.018 2.898-1.87 4.368-2.772.294-.178.588-.703.998-.115.073.105.22.03.315-.053l1.155-1.081c.115-.116.178-.315.063-.462-.158-.2-.305 0-.42.084-.147.115-.263.262-.462.325-1.9.599-3.864.966-5.754 1.628-1.838.63-3.644 1.323-5.376 2.173q-2.205 1.06-4.368 2.216c-1.082.577-2.226 1.07-3.308 1.648-1.827.977-3.696 1.869-5.554 2.793q-2.142 1.05-4.274 2.163a107 107 0 0 1-3.633 1.838c-1.554.745-3.066 1.554-4.63 2.289a79 79 0 0 0-6.258 3.307l-3.434 1.974a45.2 45.2 0 0 0-8.8 6.552c-1.647 1.586-3.338 3.14-4.577 5.05-1.04 1.586-1.722 3.403-2.583 5.104-.472.934-.924 1.89-1.49 2.803.818-.346 1.564-.787 2.35-1.144q2.196-.966 4.41-1.87c.558-.23 1.167-.356 1.67-.661 1.25-.756 2.594-1.302 3.886-1.963a75 75 0 0 1 3.937-1.848c1.649-.725 3.224-1.617 4.82-2.447.682-.357 1.438-.588 2.047-1.018 1.019-.714 2.153-1.187 3.224-1.775 1.67-.913 3.496-1.554 5.134-2.52.987-.588 2.016-1.113 2.96-1.785a57 57 0 0 1 7.603-4.851c1.103-.598 2.279-1.081 3.35-1.732l3.78-2.268a30.5 30.5 0 0 0 4.84-3.833c1.176-1.134 2.237-2.383 3.37-3.56q1.208-1.238 2.374-2.51c.787-.85 1.449-1.826 2.32-2.613q.305-.294.452-.683c-.336-.136-.525.053-.651.242-.168.262-.452.42-.693.483-1.24.304-2.216 1.06-3.234 1.753-.368.252-.767.462-1.124.756q-1.165.914-2.425 1.68c-.64.41-1.365.683-1.985 1.124q-.65.462-1.45.577Zm17.295-41.8 4.945-.536c1.733-.19 3.423-.567 5.135-.861 2.278-.388 4.588-.588 6.846-1.165a105 105 0 0 0 9.523-2.877 43 43 0 0 0 11.36-6.174 20 20 0 0 0 4.117-3.801l.368-.42c.66-.84 1.323-1.68 1.88-2.594.377-.63.682-1.302 1.07-1.932.084-.136.263-.294.168-.451-.126-.21-.357-.095-.514-.011-.83.41-1.722.599-2.552 1.05-1.24.662-2.677.872-4 1.439-1.523.65-3.171.987-4.746 1.543q-1.87.662-3.812.998c-.682.115-1.207.598-1.88.619-.965.042-1.88.347-2.803.567a67 67 0 0 1-7.675 1.376c-2.258.262-4.526.367-6.783.535-1.523.116-3.045.126-4.568.21q-2.625.137-5.187.704c-.892.199-1.711.588-2.53.976a20 20 0 0 0-3.885 2.33c-.2.159-.336.369-.567.505a11.6 11.6 0 0 0-2.814 2.478c-.903 1.134-1.932 2.184-2.667 3.497q-.85 1.543-1.827 3.045c-.116.168-.357.346-.168.567.157.178.43.084.62.02 1.133-.398 2.31-.2 3.454-.262 1.522-.073 3.013-.325 4.483-.64 1.47-.326 2.92-.725 5.009-.725Zm-65.237 50.988c.683-1.218.935-2.552 1.208-3.833.525-2.5.714-5.061 1.428-7.528.367-1.292.588-2.636 1.197-3.843.714-1.428 1.186-2.94 1.785-4.41.934-2.321 1.06-4.851 1.428-7.308a14.7 14.7 0 0 0 0-5.156 28 28 0 0 1-.483-4.18c-.168-2.54-.053-5.081-.032-7.622l.042-10.29c0-1.197.095-2.394.02-3.591-.062-1.05-.303-2.09-.471-3.13-.042-.272.073-.681-.242-.744-.21-.042-.483.24-.724.399a1 1 0 0 0-.242.273c-.61 1.018-1.407 1.91-1.827 3.034-.136.357-.241.756-.472 1.04-.83 1.06-1.008 2.446-1.785 3.538-.557.777-.672 1.796-1.092 2.636-.924 1.837-1.113 3.885-1.848 5.775-.693 1.774-.861 3.706-1.313 5.554-.336 1.365-.41 2.804-.514 4.21-.158 2.059-.231 4.117-.336 6.175-.084 1.7-.336 3.39-.347 5.103 0 2.436.882 4.756.809 7.203-.042 1.407.21 2.824.178 4.23-.042 2.185.19 4.317.61 6.448.094.473.115.966.283 1.407.65 1.69.934 3.476 1.375 5.219l.525 2.089.179-.021c.24-2.037.609-4.053.682-6.111v3.423Zm-71.158-144.785a12.6 12.6 0 0 0 3.885.714c.515.01 1.019.147 1.512.23 1.785.327 3.57.64 5.387.799 1.459.126 2.929.242 4.347.578 1.08.25 2.13.472 3.234.482 1.249.02 2.499.02 3.727.137 1.7.168 3.38.43 5.03 1.008 1.564.536 3.244.756 4.893 1.008 1.155.168 2.32.273 3.486.44.756.106 1.522.159 2.268.327 1.365.325 2.709.766 4.042 1.186 1.838.578 3.759.85 5.544 1.69 1.502.704 2.867 1.576 4.21 2.52.61.43 1.198.904 2.11 1.24-.272-.41-.272-.693-.43-.977q-.85-1.522-1.732-3.013a6 6 0 0 0-2.51-2.426 4.2 4.2 0 0 1-.797-.483 13.7 13.7 0 0 0-3.633-2.005c-1.24-.473-2.552-.704-3.77-1.292-1.617-.777-3.412-1.06-5.145-1.47-1.848-.441-3.78-.241-5.66-.451-2.3-.263-4.61-.41-6.898-.81-1.606-.283-3.223-.42-4.82-.765-1.596-.347-3.097-1.04-4.756-1.145-4.767-.304-9.513-.935-14.301-.451q-2.247.25-4.483.566c-.158.02-.368.063-.42.23-.074.21.105.337.23.484.284.347.757.389 1.04.756.83 1.05 2.037 1.66 3.119 2.33 1.396.862 2.814 1.765 4.494 2.133.924.2 1.869.546 2.677 1.04 1.848 1.123 3.696 2.204 5.859 2.635.536.105 1.06.305 1.586.462 1.428.43 2.76 1.165 4.284 1.333.945.105 1.9.284 2.782.63 1.28.494 2.54 1.019 3.917 1.07 2.446.096 4.893.18 7.329.127 1.816-.042 3.612.126 5.397.305q1.858.21 3.696.2c1.155 0 2.31-.116 3.465-.253 1.186-.136 2.404-.031 3.6-.084.894-.042 1.797.105 2.73-.105-.671-.682-1.542-.924-2.277-1.365-1.365-.808-2.951-1.186-4.463-1.66-1.228-.387-2.53-.534-3.77-.912-.524-.168-.934-.536-1.49-.651a23 23 0 0 0-3.423-.42q-1.386-.095-2.772-.231-1.302-.116-2.541-.504c-1.166-.378-2.384-.483-3.56-.777-1.701-.43-3.381-.987-5.208-.914-1.522.074-3.066-.147-4.6-.283-1.88-.18-3.726-.651-5.585-.945-3.381-.525-6.762-1.05-10.08-1.87-.21-.052-.43-.052-.714-.388Zm.368 226.664c.168.273.45.126.66.23 1.47.704 3.067 1.103 4.516 1.88.798.42 1.753.567 2.53 1.029 1.344.788 2.877 1.092 4.284 1.743 1.25.588 2.625.914 3.896 1.512 1.417.672 2.698 1.533 3.906 2.478.556.44 1.186.935 1.543 1.512.557.882 1.439 1.418 2.016 2.268.21.315.714.42.956.724.609.756 1.49 1.134 2.226 1.712.535.43 1.228.756 1.743 1.218 1.05.935 2.352 1.26 3.612 1.607 1.312.367 2.72.525 3.916 1.123 1.197.588 2.394 1.207 3.518 1.995 1.018.724 2.026 1.49 3.097 2.163.179.116.4.147.536.347.777 1.144 1.554 2.278 2.97 2.73.19.063.327.252.474.409.65.714 1.575.977 2.394 1.428-.914-2.184-2.541-3.811-4.064-5.512a9.5 9.5 0 0 1 2.163 1.753c-.357-.83-.42-1.712-.84-2.51-.273-.514-.64-.987-.82-1.564a14.7 14.7 0 0 0-2.372-4.295c-1.26-1.69-2.74-3.213-3.895-4.977-.388-.588-.892-1.04-1.291-1.575-.41-.556-1.03-.934-1.292-1.596a6.3 6.3 0 0 0-2.184-2.5 31 31 0 0 1-2.226-1.952 13.13 13.13 0 0 0-6.92-3.56 40 40 0 0 0-5.68-.682c-1.743-.084-3.413-.63-5.156-.735-2.005-.126-3.99-.472-6.006-.44-2.898.04-5.575.84-8.19 2.015Zm66.507-197.148c.966-.221 1.5-.987 2.268-1.23 1.28-.41 2.362-1.238 3.622-1.658 1.04-.346 1.754-1.228 2.75-1.617 1.125-.43 2.017-1.26 2.994-1.911q1.512-1.018 2.94-2.205c.976-.82 2.079-1.491 3.055-2.31.83-.693 1.554-1.501 2.352-2.247.693-.651 1.376-1.344 1.922-2.08.588-.797 1.27-1.521 1.858-2.32.756-1.06 1.596-2.09 2.32-3.16.757-1.124 1.68-2.121 2.32-3.318q.18-.347.42-.64c.62-.715 1.104-1.565 1.555-2.363l2.174-3.843c.168-.305.168-.714.483-.935.178-.126.42-.315.199-.493-.242-.2-.378.073-.536.283-.84 1.082-1.68 2.163-2.772 3.035-.682.546-1.364 1.134-1.952 1.774a26.3 26.3 0 0 1-4.148 3.612q-1.554 1.113-3.066 2.279-1.533 1.197-2.908 2.614c.262-1.03 1.102-1.564 1.806-2.226.714-.682 1.627-1.092 2.394-1.68a53 53 0 0 0 3.643-3.076q2.489-2.28 4.925-4.62c1.5-1.46 2.688-3.171 4.179-4.62.199-.2.42-.504.377-.82-1.218.526-2.29 1.26-3.391 1.943-.357.22-.777.347-1.113.63-1.06.893-2.331 1.439-3.476 2.195-1.144.756-2.32 1.449-3.38 2.268-.788.609-1.67 1.06-2.437 1.722-.987.86-2.173 1.49-3.265 2.236-1.313.893-2.646 1.785-3.864 2.814-.84.704-1.68 1.397-2.468 2.163q-1.04 1.019-2.047 2.069c-1.134 1.155-2.121 2.425-3.12 3.664a26 26 0 0 0-2.55 3.76c-.725 1.29-1.145 2.687-1.754 4.01-.483 1.04-.64 2.226-1.123 3.255a24 24 0 0 0-1.187 3.045m8.579-87.108c-.074.525-.536.798-.683 1.25-.62 1.806-1.648 3.412-2.404 5.155a29.4 29.4 0 0 0-1.754 6.657c-.2 1.166.126 2.31.263 3.465.24 2.058.934 3.959 1.648 5.88.809 2.142 2.258 3.885 3.423 5.807.924 1.512 1.617 3.118 2.468 4.662.745 1.365 1.26 2.866 1.67 4.389q.22.903.398 1.827c.41-1.218.504-2.478.704-3.717.325-2.016.22-4.064.2-6.111-.032-2.583.22-5.156-.568-7.697-.735-2.383-.714-4.914-1.407-7.318-.451-1.554-.756-3.12-1.396-4.63-.82-1.943-1.187-4.064-1.66-6.133-.262-1.155-.493-2.33-.902-3.465Zm67.83 26.072c-1.145.105-2.132.64-3.224.756-.525.052-1.06.052-1.564.189-1.911.546-3.885.714-5.828 1.06-3.633.65-7.34.64-11.025.86-2.572.148-5.155.21-7.717.589-2.384.357-4.746.84-6.962 1.848-.504.23-1.07.357-1.501.672-1.103.798-2.373 1.302-3.518 2.016a55 55 0 0 0-5.25 3.77c.43.126.756-.042 1.082-.147.546-.168 1.102-.536 1.638-.515 1.5.053 2.898-.546 4.378-.61 1.48-.062 2.94-.43 4.42-.492 3.235-.126 6.469-.305 9.713-.231 2.71.063 5.334-.515 7.938-1.208a79 79 0 0 0 5.607-1.753c1.45-.494 2.793-1.23 4.21-1.785 1.072-.42 2.185-.83 3.119-1.565q1.313-1.008 2.667-1.984c.61-.452 1.45-.64 1.817-1.47m-148.554 62.874c.052.242.042.326.084.368 1.134 1.102 2.31 2.162 3.392 3.307.85.903 1.732 1.775 2.56 2.699.779.86 1.619 1.69 2.333 2.583a15.8 15.8 0 0 0 3.6 3.244c1.723 1.145 3.119 2.625 4.652 3.959 1.06.924 2.09 1.848 3.276 2.614q1.323.882 2.51 1.932 1.113.966 2.289 1.785 1.28.914 2.425 1.974c1.06.977 2.3 1.712 3.37 2.667.326.284.83.305 1.06.704.505.86 1.419 1.29 2.09 1.995.694.724 1.555 1.365 2.31 2.068.64.588 1.397.956 2.069 1.47.893.683 1.87 1.218 2.625 2.1.494.578 1.092 1.082 1.46 1.817.189-.221.136-.368.094-.504a14.7 14.7 0 0 0-2.142-4.022 53 53 0 0 0-3.192-3.79q-1.24-1.365-2.268-2.888c-.283-.41-.504-.892-.85-1.207-.903-.83-1.565-1.88-2.552-2.657-.672-.525-1.27-1.24-1.953-1.711-1.07-.756-1.9-1.796-3.055-2.436l-.2-.21c-.62-.872-1.512-1.491-2.236-2.268a25 25 0 0 0-2.07-2.027 41 41 0 0 0-2.498-1.984c-1.606-1.187-3.328-2.205-4.966-3.35-1.155-.808-2.342-1.564-3.455-2.457-.84-.682-1.858-1.218-2.835-1.743a137 137 0 0 0-5.523-2.793c-.777-.367-1.596-.651-2.404-1.25Zm53.98 108.339c.126-.598-.052-1.144-.063-1.69-.01-.945-.42-1.407-1.312-1.775-.651-.262-.714 0-.683.536.095 2.058.137 4.116.242 6.174.074 1.48.22 2.96.326 4.44.01.2.042.43.23.495.21.063.284-.168.315-.315q.473-1.838.872-3.686c.294-1.396.22-2.803.063-4.17Zm72.136-42.326c-.757-.063-2.542 1.145-2.794 1.733Z"/><path d="M562.74 713.026c-.608-.483-1.385-.662-1.973-1.155.693.336 1.49.494 1.974 1.155m-1.817 53.246c.346 2.698 1.512 5.155 2.215 7.917-.714-.83-2.436-6.384-2.215-7.917m40.93-118.325a5.8 5.8 0 0 1 3.16-1.481c-1.176.242-1.995 1.229-3.16 1.48m45.297-14.71c0-.63.504-.84.808-1.186.095-.105.263-.158.389-.053.168.137.063.347-.032.44-.325.316-.588.736-1.155.799Zm-7.824 40.048c-.788 1.743-2.257 2.929-3.55 4.252a20 20 0 0 1 3.55-4.252m-3.78 4.777c-.82.714-1.24 1.733-2.005 2.468.588-.893.987-1.922 2.006-2.468m-20.99 63.01c-.105.305-.431.315-.641.44-.788.495-1.617.957-2.352 1.503-1.207.892-2.53 1.606-3.79 2.394l-3.833 2.352c-1.092.672-2.3 1.155-3.297 2.005-.567.483-1.45.515-1.838 1.28-.052.096-.252.064-.315-.041-.084-.136.074-.21.158-.273 1.155-.85 2.289-1.711 3.507-2.468 1.47-.913 3.077-1.585 4.515-2.52 1.123-.734 2.268-1.438 3.339-2.246.62-.473 1.438-.767 2.079-1.197q1.008-.662 2.079-1.197c.105-.053.22-.105.399-.021Zm22.952-14.017c1.134-.693 2.195-1.481 3.444-1.943.44-.168.84-.451 1.26-.662.147-.073.347-.136.41.106q.02.24-.231.304c-1.418.43-2.646 1.25-3.99 1.827ZM619.556 737.9c-1.344.808-2.457 1.994-4.043 2.414 1.27-.924 2.53-1.88 4.043-2.415m3.707-2.446c.619-.903 1.575-1.24 2.53-1.586-.861.504-1.617 1.166-2.53 1.586m-26.86 17.314q.263-.923 1.208-.976Zm4.2-75.862c-.2 2.93-1.26 5.523-1.301 8.274-.115-1.638.536-7.025 1.302-8.274m.01-.693c-.242-1.228.409-2.363.293-3.633.42.567.21 2.688-.293 3.633m-76.125-88.274c-.127.084-.148.115-.17.115-.43-.052-.828-.19-1.091-.556-.01-.021.063-.147.095-.147.472-.01.735.357 1.165.588m67.978 28.36 7.098-7.727.263.24c-2.342 2.605-4.578 5.314-7.151 7.708Zm8.693-8.861a14.7 14.7 0 0 1 3.098-3.066 11.6 11.6 0 0 1-3.098 3.066m7.582-7.665c-.525.714-.956 1.386-1.701 1.806-.4.22-.483.809-.893 1.092-.136.095-.284.284-.42.147-.2-.19.053-.304.168-.441.662-.82 1.449-1.512 2.205-2.226.158-.147.284-.336.64-.367Z"/></g><rect width="441.051" height="51.98" x="177.809" y="374.084" fill="none" rx="0" ry="0" transform="matrix(.92 0 0 .92 418.262 532.93)"/><path fill="#343434" d="m613.989 911.632 1.564-6.854h1.224v9.218h-23.7v-1.14q1.188-.378 2.31-.608 1.122-.24 2.217-.368l.423-23.442-4.95-.93v-1.232h23.277v8.345h-1.224l-1.481-5.971h-13.754l1.48-1.481v11.38h7.913l1.316-3.634h1.095v9.65h-1.095l-1.316-3.69h-7.912v12.238l-1.481-1.481Zm34.73 0 1.61-8.805h1.186v11.169h-21.63v-1.14q1.188-.378 2.31-.608 1.123-.24 2.218-.368l.423-23.442-4.95-.93v-1.232h13.46v1.104q-1.141.295-2.457.57-1.306.277-2.704.406v23.276Zm27.47-6.854h-1.738l-9.78-17.186v-.892h3.726l8.124 14.986h-1.14l8.252-14.986h2.585l.037.81Zm6.174 9.218h-14.177v-1.14q1.352-.378 2.65-.608 1.287-.24 2.557-.368l.166-9.945h3.56v9.945l5.244.846Zm-15.612-25.088-5.29-1.362v-1.27h12.944v1.022q-1.858.67-3.763 1.076t-3.891.534m16.753 0-5.75-1.362v-1.27h11.886v1.022q-1.481.67-3 1.076-1.526.405-3.136.534m25.742 25.52q-2.033 0-4.15-.312-2.115-.322-4.268-.956l1.353-2.448q1.95.543 4.038.82 2.098.275 4.297.275 1.315 0 2.622-.083 1.315-.082 2.63-.294l-1.443.423q.846-.423 1.545-1.076.7-.663 1.123-1.463.423-.81.423-1.656 0-1.39-1.16-2.447-1.168-1.058-2.99-1.97-1.821-.91-3.845-1.84-2.033-.937-3.873-2.08-1.84-1.14-3.01-2.64-1.158-1.507-1.158-3.623 0-2.2 1.37-3.81 1.38-1.6 3.856-2.474 2.475-.865 5.86-.865 1.822 0 3.68.258 1.859.248 3.643.717l-.938 2.54q-1.904-.47-3.846-.7-1.95-.23-3.891-.23-1.362 0-2.668.12-1.316.129-2.622.386l1.564-.47q-1.141.636-1.868 1.657-.717 1.012-.717 2.236 0 1.527 1.168 2.668 1.16 1.14 2.98 2.079 1.822.93 3.874 1.84t3.873 2.006q1.822 1.104 2.98 2.566 1.169 1.454 1.169 3.44 0 2.246-1.462 3.92-1.463 1.675-4.067 2.586-2.603.9-6.072.9m-6.9-9.392 2.033 8.17-3.55-.046.165-8.124Zm17.186-10.286h-1.353l-1.95-7.866h3.56Zm26.238 19.246h-12.825v-1.14q1.187-.378 2.31-.608 1.122-.24 2.217-.368l.423-23.442-4.95-.93v-1.232h12.825v1.104q-1.012.295-2.18.57-1.16.277-2.346.406v23.524l4.526.846Zm26.31-27.72 9.44 25.779q.8.165 1.546.359.736.193 1.463.404v1.178h-11.26v-1.178l4.36-.81-8.464-24.462h.883l-8.795 24.334q1.306.212 2.558.45 1.25.23 2.52.488v1.178H755.54v-1.178l2.87-.938 9.65-25.604Zm4.868 18.538h-14.214v-2.244h14.214Zm35.972-17.305v-1.233h12.025v1.104q-1.15.34-2.245.59-1.104.257-2.245.386l-.046 25.64h-3.634l-16.164-24.417.8-.248v22.549l5.207.846v1.27H794.17v-1.14q1.15-.378 2.272-.608 1.113-.24 2.217-.368l.423-23.442-4.95-.93v-1.232h8.502l16.21 24.51-.718.21-.423-22.686Zm51.18 26.837q-6.522 0-10.037-3.634-3.505-3.643-3.505-10.46 0-4.526 1.71-7.737 1.713-3.22 4.887-4.96 3.174-1.73 7.617-1.73 1.61 0 3.469.25 1.867.257 3.808.727l-.754 2.87q-1.785-.543-3.56-.846-1.776-.295-3.552-.295-2.08 0-4.103.45-2.033.443-3.983 1.326l1.398-1.012q-1.647 2.41-2.475 5.16t-.828 5.926q0 5.5 2.687 8.445t7.599 2.944q1.435 0 3.11-.303 1.674-.295 3.532-.93l.93 2.715q-4.444 1.094-7.95 1.094m7.948-1.094-3.716.036 2.41-8.335h1.306Zm0-18.161h-1.306l-2.374-8.29h3.68Zm32.045 16.54 1.6-8.804h1.188v11.169h-21.62v-1.14q1.177-.378 2.3-.608 1.122-.24 2.226-.368l.423-23.442-4.95-.93v-1.232h13.45v1.104q-1.14.295-2.446.57-1.316.277-2.714.406v23.276Zm34.868 0 1.564-6.853h1.233v9.218h-23.7v-1.14q1.178-.378 2.3-.608 1.123-.24 2.227-.368l.423-23.442-4.95-.93v-1.232h23.277v8.345h-1.233l-1.481-5.971h-13.754l1.48-1.481v11.38h7.913l1.315-3.634h1.104v9.65h-1.104l-1.315-3.69h-7.912v12.238l-1.481-1.481Zm29.284 2.76q-3.634 0-6.431-1.737-2.797-1.73-4.333-4.84-1.546-3.118-1.546-7.304 0-4.278 1.665-7.554 1.675-3.284 4.59-5.16 2.927-1.887 6.607-1.887t6.495 1.757q2.815 1.758 4.379 4.867t1.564 7.213q0 4.315-1.628 7.618-1.63 3.302-4.545 5.16-2.926 1.868-6.817 1.868m.34-2.41q2.668 0 4.674-1.481 2.014-1.481 3.174-4.195 1.168-2.705 1.168-6.302 0-3.515-1.104-6.1-1.095-2.576-3.146-3.993-2.061-1.417-4.85-1.417-1.82 0-3.642.635t-3.303 1.94l1.316-1.563q-3.303 5.125-3.303 10.92 0 3.423 1.14 6.054 1.15 2.622 3.156 4.058 2.015 1.444 4.72 1.444"/></g><path fill="transparent" stroke="transparent" stroke-width="1.792" d="M250 317.204h1000v865.592H250z"/></g></svg>